<svg width="475" height="455" viewBox="0 0 475 455" fill="none" xmlns="http://www.w3.org/2000/svg">
<path fill-rule="evenodd" clip-rule="evenodd" d="M319.95 34.4025C319.219 34.0587 318.473 33.7507 317.711 33.4786C316.954 33.2065 316.183 32.9703 315.405 32.7719C315.064 32.685 314.719 32.6075 314.377 32.5357C314.303 32.5187 314.229 32.5036 314.153 32.4885C313.812 32.4205 313.468 32.3562 313.123 32.3015C313.095 32.2958 313.064 32.292 313.036 32.2882C312.697 32.2372 312.358 32.1919 312.021 32.1541C311.975 32.1484 311.934 32.1427 311.888 32.1371C311.525 32.0993 311.159 32.0672 310.794 32.0445C310.771 32.0426 310.752 32.0426 310.729 32.0407C309.968 31.9973 309.209 31.9878 308.453 32.0161C308.446 32.0161 308.438 32.0161 308.43 32.018C306.467 32.0936 304.526 32.4205 302.673 33.0176C302.655 33.0232 302.636 33.0289 302.619 33.0346C302.361 33.1177 302.105 33.2065 301.852 33.301C301.827 33.3104 301.8 33.3199 301.774 33.3293C300.962 33.6354 300.166 33.9944 299.395 34.4101C299.356 34.4309 299.316 34.4535 299.276 34.4762C299.072 34.5896 298.865 34.7067 298.665 34.8277C298.604 34.8636 298.543 34.8995 298.485 34.9354C298.297 35.0506 298.112 35.1697 297.928 35.2925L297.756 35.4058C297.543 35.5513 297.333 35.7006 297.125 35.8555L297.059 35.9028C296.828 36.0766 296.6 36.2561 296.375 36.4431C296.33 36.4809 296.288 36.5187 296.242 36.5565C296.07 36.702 295.9 36.8513 295.729 37.0043C295.659 37.0686 295.591 37.1328 295.523 37.1989C295.377 37.3331 295.237 37.4691 295.097 37.6089C295.025 37.6807 294.953 37.7525 294.881 37.8262C294.739 37.9717 294.601 38.121 294.464 38.2721C294.404 38.3402 294.341 38.4082 294.279 38.4762C294.084 38.6973 293.89 38.924 293.705 39.1564C290.506 43.1375 290.505 47.3472 291.561 51.5739C291.65 51.9254 291.743 52.2787 291.845 52.6301C291.966 53.0496 292.097 53.4672 292.233 53.8847C292.442 54.5234 292.661 55.162 292.892 55.7987C293.885 58.051 294.656 60.2087 295.131 62.3117C295.182 62.546 295.231 62.7784 295.279 63.0108C295.413 63.708 295.517 64.3996 295.583 65.0854C295.606 65.3141 295.623 65.5427 295.636 65.7713C295.707 66.9125 295.676 68.0424 295.529 69.1704C295.383 70.2966 295.123 71.4189 294.737 72.545C294.582 72.9966 294.406 73.4482 294.211 73.8997C293.623 75.2564 292.845 76.6206 291.862 78.0055C291.609 78.3626 291.347 78.716 291.08 79.0636C289.211 81.5029 287.058 83.7268 285.013 86.0168C284.742 86.3192 284.536 86.6177 284.377 86.9181C284.289 87.0787 284.214 87.2412 284.157 87.4056C284.157 87.4094 284.157 87.4113 284.155 87.415C284.115 87.5284 284.085 87.6437 284.06 87.7589C284.058 87.774 284.056 87.7892 284.055 87.8043C284.034 87.9082 284.017 88.0159 284.009 88.1217V88.1387C283.99 88.3768 284.002 88.6205 284.036 88.8699C284.072 89.1042 284.128 89.3442 284.208 89.5898V89.5917C284.248 89.7145 284.293 89.8373 284.342 89.9639C284.394 90.0924 284.45 90.2209 284.511 90.355C284.645 90.6422 284.789 90.9294 284.939 91.2166C285.089 91.5038 285.246 91.7891 285.41 92.0725C285.74 92.6413 286.098 93.2024 286.484 93.7523C286.871 94.3002 287.283 94.833 287.723 95.347C287.942 95.6058 288.17 95.8571 288.401 96.1028C288.865 96.5959 289.353 97.0626 289.863 97.501C290.245 97.8278 290.641 98.1377 291.05 98.4287C291.323 98.6214 291.599 98.8066 291.881 98.9804C292.021 99.0673 292.163 99.1523 292.307 99.2355C292.508 99.3488 292.709 99.4566 292.913 99.5586C293.095 99.6531 293.281 99.7419 293.468 99.8269C293.72 99.9421 293.978 100.048 294.237 100.146C294.801 100.358 295.379 100.532 295.974 100.656C297.581 100.996 299.528 101.161 301.217 100.785C301.371 100.751 301.526 100.711 301.676 100.666C301.821 100.624 301.963 100.577 302.103 100.526C302.174 100.5 302.242 100.473 302.312 100.445C302.588 100.329 302.855 100.193 303.103 100.037C303.314 99.9044 303.511 99.757 303.696 99.5926C303.796 99.5038 303.893 99.4093 303.986 99.3092C304.126 99.158 304.255 98.9955 304.372 98.8198C304.611 98.4646 304.806 98.0583 304.946 97.5935C305.743 94.937 304.918 92.1047 305.19 89.3971C305.203 89.2667 305.217 89.1382 305.234 89.0078C305.277 88.7018 305.325 88.3994 305.38 88.099C305.537 87.1959 305.732 86.3154 305.967 85.4557C306.349 83.8307 306.876 82.2455 307.529 80.715C307.716 80.2786 307.915 79.8459 308.124 79.4189C308.642 78.3513 309.226 77.3121 309.868 76.3126C312.178 72.7113 315.242 69.5937 318.808 67.2451C324.158 63.6532 332.889 61.6863 332.997 54.1096C333.138 45.6505 327.602 37.6845 319.95 34.4025Z" fill="white" fill-opacity="0.136965"/>
<path fill-rule="evenodd" clip-rule="evenodd" d="M92.1925 137.105C91.7888 136.748 91.4439 136.272 91.1501 135.657C89.4917 132.193 87.9793 128.629 85.9456 125.368C80.7014 116.955 73.5353 114.769 63.9604 114.951C62.3285 114.872 60.7081 114.748 59.1369 114.509C54.4233 113.788 50.1741 112.009 47.5017 107.105C43.0478 98.929 44.9071 89.5444 50.193 82.531C51.2487 81.1291 52.4427 79.8202 53.7524 78.6364C60.2873 72.3079 70.6583 70.0903 79.1378 73.8047C86.7436 77.1112 85.053 86.7481 86.427 93.6552C87.9698 101.812 92.6436 109.397 99.404 114.293C100.431 115.092 101.523 115.839 102.683 116.532C105.363 118.133 108.769 118.43 111.229 120.449C114.513 123.145 112.601 127.807 110.545 130.788C107.273 135.53 100.867 137.765 95.3197 137.993C93.993 138.048 92.9771 137.799 92.1925 137.105Z" fill="#383075"/>
<path fill-rule="evenodd" clip-rule="evenodd" d="M53.9932 79.6192C52.6891 80.7999 51.4983 82.1036 50.4436 83.5037C48.3796 86.2416 46.8449 89.3428 46 92.5916C47.6368 89.4809 49.6857 86.6428 52.5454 84.3571C60.0037 77.8425 73.2344 74.4254 79.0351 82.7299C82.7246 88.0429 82.4826 95.6719 82.9155 102.764C83.1801 105.855 83.9834 109.619 87.1039 111.806C87.8392 112.349 88.6368 112.894 89.4684 113.446C90.3228 114.249 91.6969 114.761 92.7931 115.448C93.3412 115.791 93.8213 116.177 94.1294 116.665C94.3241 117.164 94.6889 118.203 94.4243 118.228C87.1814 123.738 86.4424 132.92 93.6285 138.137C95.9288 139.794 99.0361 138.697 101.703 137.893C102.397 137.624 103.087 137.319 103.758 136.982C105.098 136.309 106.36 135.52 107.396 134.684C108.033 134.163 108.632 133.601 109.19 133.001C110.864 131.204 112.153 129.064 112.891 126.663C113.248 124.754 112.754 122.387 111.061 121.477C108.549 120.373 106.054 119.471 103.746 118.315C102.977 117.931 102.23 117.518 101.51 117.06C100.788 116.601 100.095 116.099 99.4349 115.533C98.7734 114.97 98.1459 114.343 97.5599 113.639C96.9305 113.098 96.32 112.534 95.7341 111.946C91.041 107.25 87.8108 101.106 86.5785 94.5991C85.2101 87.708 86.8941 78.098 79.3111 74.8C70.8529 71.0953 60.5103 73.3071 53.9932 79.6192Z" fill="#BE0152"/>
<path fill-rule="evenodd" clip-rule="evenodd" d="M86.019 125.8C87.0356 127.152 87.9627 128.416 88.3835 130C92.9163 126.594 95.0181 123.146 94.9952 117.196C95.0524 116.379 94.5897 115.746 93.912 115.254C93.2362 114.759 92.3452 114.406 91.5532 114.142C91.1097 113.924 90.6794 113.714 90.2949 113.513C89.8798 113.25 89.4781 112.975 89.105 112.679C88.7604 112.448 88.4254 112.216 88.096 111.987C87.7667 111.758 87.4468 111.529 87.1384 111.302C83.9972 109.093 83.1881 105.294 82.9197 102.171C82.4856 95.0117 82.7274 87.3119 79.0113 81.9463C73.1686 73.5626 59.8423 77.0123 52.3319 83.589C49.4496 85.8984 47.386 88.7617 45.7392 91.902C44.4161 97.0021 44.7892 102.463 47.5097 107.472C50.1959 112.409 54.4641 114.203 59.1969 114.927C60.7751 115.17 62.4047 115.292 64.0439 115.374C69.4544 115.269 74.0976 115.92 78.0632 118.018C78.5049 118.251 78.9351 118.501 79.3615 118.77C80.6751 119.553 81.8897 120.623 83.0053 121.849C83.5632 122.463 84.0981 123.116 84.6045 123.786C85.1071 124.455 85.5811 125.131 86.019 125.8Z" fill="#EB0065"/>
<path fill-rule="evenodd" clip-rule="evenodd" d="M55.9815 108C53.1432 106.475 51.736 103.218 51.1022 100.267C50.5088 96.1543 52.4818 89.6694 57.4898 91.2405C62.0495 92.5631 61.717 98.1762 61.9907 102.231C62.1744 104.932 59.608 107.306 56.7641 107.852C56.5125 107.902 56.2534 107.952 55.9815 108Z" fill="#BE0152"/>
<path fill-rule="evenodd" clip-rule="evenodd" d="M439.473 152.084C439.116 151.36 438.721 150.655 438.297 149.968C437.872 149.283 437.416 148.617 436.93 147.978C436.717 147.698 436.497 147.424 436.273 147.153C436.225 147.095 436.178 147.036 436.127 146.978C435.902 146.711 435.673 146.446 435.435 146.189C435.416 146.168 435.395 146.145 435.376 146.125C435.143 145.873 434.907 145.627 434.664 145.387C434.632 145.355 434.603 145.323 434.569 145.292C434.309 145.035 434.043 144.784 433.77 144.54C433.754 144.524 433.737 144.509 433.722 144.494C433.152 143.985 432.562 143.507 431.95 143.059C431.944 143.053 431.939 143.049 431.933 143.045C430.345 141.88 428.619 140.931 426.791 140.242C426.774 140.235 426.757 140.229 426.738 140.223C426.484 140.127 426.227 140.038 425.971 139.953C425.944 139.945 425.918 139.936 425.893 139.928C425.061 139.66 424.214 139.446 423.35 139.293C423.304 139.283 423.259 139.278 423.213 139.27C422.981 139.23 422.748 139.194 422.512 139.164C422.444 139.155 422.376 139.145 422.305 139.138C422.087 139.111 421.865 139.088 421.644 139.069C421.576 139.064 421.508 139.056 421.439 139.052C421.181 139.034 420.923 139.018 420.664 139.011C420.636 139.009 420.607 139.007 420.583 139.007C420.29 139 420 138.998 419.707 139.003C419.648 139.005 419.589 139.009 419.532 139.009C419.304 139.017 419.078 139.026 418.849 139.041C418.754 139.047 418.659 139.056 418.562 139.064C418.368 139.079 418.171 139.098 417.975 139.121C417.872 139.132 417.77 139.143 417.669 139.157C417.466 139.183 417.265 139.213 417.061 139.245C416.97 139.261 416.879 139.274 416.788 139.291C416.495 139.342 416.205 139.399 415.912 139.465C410.909 140.588 408.269 143.883 406.45 147.85C406.298 148.181 406.152 148.515 406.011 148.854C405.844 149.257 405.684 149.665 405.529 150.078C405.291 150.706 405.065 151.343 404.847 151.986C404.216 154.369 403.466 156.537 402.52 158.477C402.414 158.693 402.309 158.905 402.197 159.117C401.867 159.747 401.515 160.352 401.136 160.931C401.01 161.124 400.883 161.315 400.75 161.502C400.091 162.438 399.358 163.303 398.535 164.095C397.717 164.886 396.807 165.603 395.799 166.244C395.394 166.499 394.974 166.743 394.537 166.976C393.227 167.672 391.764 168.256 390.125 168.727C389.7 168.848 389.274 168.962 388.847 169.068C385.854 169.815 382.771 170.214 379.73 170.734C379.332 170.802 378.98 170.906 378.667 171.042C378.498 171.116 378.338 171.195 378.19 171.288C378.188 171.29 378.184 171.292 378.182 171.294C378.082 171.358 377.985 171.43 377.894 171.504C377.882 171.513 377.871 171.525 377.861 171.536C377.78 171.606 377.7 171.678 377.626 171.755L377.615 171.77C377.451 171.944 377.307 172.141 377.18 172.359C377.18 172.361 377.178 172.361 377.178 172.361C377.06 172.565 376.954 172.786 376.862 173.03C376.861 173.03 376.861 173.032 376.861 173.032C376.817 173.153 376.773 173.276 376.733 173.405C376.693 173.537 376.657 173.675 376.621 173.817C376.547 174.127 376.479 174.439 376.416 174.757C376.355 175.075 376.298 175.396 376.249 175.722C376.152 176.372 376.082 177.034 376.042 177.704C376 178.373 375.989 179.051 376.012 179.726C376.023 180.063 376.042 180.401 376.069 180.738C376.124 181.411 376.215 182.083 376.342 182.743C376.437 183.238 376.553 183.726 376.69 184.209C376.783 184.528 376.883 184.846 376.995 185.158C377.052 185.313 377.109 185.468 377.17 185.621C377.256 185.835 377.347 186.045 377.442 186.253C377.527 186.44 377.616 186.626 377.71 186.807C377.837 187.055 377.972 187.299 378.112 187.537C378.422 188.056 378.767 188.551 379.153 189.017C380.203 190.286 381.628 191.625 383.187 192.383C383.33 192.451 383.476 192.516 383.62 192.574C383.761 192.631 383.903 192.684 384.046 192.731C384.116 192.754 384.188 192.777 384.258 192.796C384.549 192.881 384.841 192.939 385.136 192.972C385.383 193 385.63 193.007 385.877 192.992C386.013 192.985 386.15 192.973 386.285 192.951C386.488 192.92 386.691 192.873 386.891 192.809C387.303 192.68 387.709 192.482 388.112 192.206C390.401 190.622 391.529 187.891 393.438 185.941C393.531 185.848 393.62 185.754 393.717 185.665C393.941 185.453 394.169 185.245 394.401 185.043C395.09 184.436 395.795 183.868 396.518 183.338C397.835 182.308 399.24 181.394 400.714 180.603C401.134 180.378 401.559 180.163 401.992 179.958C403.067 179.444 404.174 178.996 405.306 178.612C409.373 177.231 413.73 176.7 417.998 177.082C424.444 177.6 432.525 181.498 437.359 175.633C442.767 169.098 443.418 159.418 439.473 152.084Z" fill="white" fill-opacity="0.136965"/>
<path fill-rule="evenodd" clip-rule="evenodd" d="M148.146 45.6735C147.334 45.9718 146.538 46.3059 145.763 46.6759C144.987 47.0477 144.227 47.4536 143.492 47.8934C143.17 48.086 142.853 48.2879 142.541 48.4937L142.339 48.6258C142.031 48.8335 141.722 49.0468 141.422 49.2658C141.396 49.2846 141.373 49.3035 141.348 49.3224C141.054 49.5376 140.766 49.7603 140.484 49.9868C140.446 50.0152 140.41 50.0454 140.373 50.0756C140.07 50.3191 139.775 50.572 139.483 50.8287C139.466 50.8457 139.449 50.8627 139.431 50.8778C138.829 51.4158 138.252 51.9821 137.709 52.573C137.703 52.5786 137.697 52.5843 137.693 52.5899C136.28 54.1265 135.079 55.8292 134.149 57.6659C134.139 57.6829 134.129 57.7018 134.12 57.7187C133.993 57.9755 133.87 58.2341 133.752 58.4946C133.74 58.521 133.727 58.5474 133.717 58.5739C133.341 59.412 133.021 60.2765 132.764 61.1637C132.752 61.2091 132.739 61.2544 132.727 61.3015C132.658 61.5394 132.597 61.781 132.537 62.0226C132.52 62.0944 132.503 62.1661 132.487 62.2359C132.436 62.4644 132.386 62.6928 132.344 62.9212C132.33 62.9929 132.315 63.0627 132.301 63.1345C132.253 63.4025 132.211 63.6706 132.175 63.9405C132.171 63.9688 132.165 63.9971 132.161 64.0255C132.121 64.3275 132.088 64.6333 132.063 64.941C132.058 65.0014 132.056 65.0618 132.05 65.1222C132.035 65.36 132.021 65.5998 132.012 65.8414C132.008 65.9396 132.006 66.0415 132.004 66.1415C132 66.3473 131.998 66.5549 132.002 66.7626C132.002 66.8702 132.004 66.9797 132.008 67.0873C132.014 67.3006 132.025 67.5158 132.039 67.731C132.042 67.8272 132.046 67.9235 132.054 68.0198C132.077 68.3312 132.108 68.6408 132.146 68.9542C132.806 74.3019 136.034 77.4128 140.068 79.7365C140.406 79.931 140.747 80.1197 141.093 80.3029C141.503 80.5218 141.923 80.7314 142.347 80.9371C142.99 81.2524 143.646 81.5582 144.307 81.8545C146.78 82.7682 149.011 83.7818 150.981 84.9767C151.198 85.1108 151.413 85.2448 151.625 85.3826C152.262 85.7941 152.87 86.2264 153.448 86.6851C153.638 86.8361 153.828 86.9928 154.014 87.1494C154.942 87.9385 155.784 88.7974 156.54 89.7393C157.296 90.6813 157.961 91.7082 158.537 92.8313C158.765 93.2806 158.98 93.745 159.181 94.2263C159.782 95.6685 160.25 97.2617 160.574 99.0248C160.656 99.4816 160.733 99.9384 160.8 100.397C161.272 103.606 161.368 106.87 161.593 110.102C161.621 110.526 161.696 110.904 161.807 111.246C161.867 111.431 161.934 111.608 162.016 111.77C162.018 111.774 162.02 111.776 162.022 111.78C162.084 111.893 162.147 112.001 162.218 112.103C162.226 112.118 162.237 112.129 162.247 112.142C162.312 112.235 162.381 112.325 162.458 112.41C162.462 112.416 162.465 112.42 162.469 112.423C162.64 112.614 162.832 112.786 163.052 112.943C163.258 113.09 163.484 113.224 163.733 113.347H163.735C163.858 113.407 163.987 113.465 164.119 113.518C164.255 113.575 164.399 113.63 164.547 113.681C164.869 113.792 165.195 113.898 165.529 113.996C165.859 114.094 166.196 114.187 166.538 114.272C167.221 114.443 167.921 114.589 168.631 114.702C169.34 114.815 170.06 114.898 170.783 114.949C171.143 114.972 171.506 114.989 171.868 114.996C172.592 115.01 173.317 114.987 174.034 114.925C174.573 114.877 175.108 114.809 175.636 114.717C175.989 114.653 176.336 114.581 176.681 114.498C176.854 114.456 177.027 114.411 177.197 114.364C177.433 114.298 177.667 114.224 177.899 114.147C178.107 114.079 178.314 114.005 178.517 113.928C178.797 113.822 179.069 113.707 179.34 113.584C179.925 113.314 180.491 113.007 181.032 112.654C182.495 111.691 184.078 110.345 185.054 108.795C185.144 108.654 185.227 108.51 185.306 108.365C185.382 108.223 185.453 108.082 185.519 107.936C185.551 107.865 185.584 107.793 185.611 107.721C185.733 107.427 185.829 107.127 185.894 106.823C185.948 106.568 185.985 106.311 185.994 106.049C186.002 105.907 186.002 105.764 185.994 105.62C185.985 105.405 185.956 105.188 185.91 104.969C185.816 104.527 185.649 104.08 185.396 103.633C183.955 101.069 181.162 99.6005 179.29 97.3957C179.2 97.29 179.112 97.1862 179.027 97.0748C178.824 96.8181 178.628 96.5576 178.436 96.2952C177.861 95.5099 177.333 94.7115 176.848 93.8998C175.887 92.4123 175.064 90.8455 174.383 89.224C174.188 88.7596 174.002 88.2915 173.831 87.8196C173.401 86.6398 173.042 85.4335 172.753 84.2122C171.719 79.8121 171.621 75.2024 172.49 70.7814C173.739 64.101 178.766 56.0689 173.033 50.3927C166.647 44.0426 156.394 42.3304 148.146 45.6735Z" fill="white" fill-opacity="0.136965"/>
<path fill-rule="evenodd" clip-rule="evenodd" d="M31.5888 169.726C31.2236 170.498 30.8924 171.288 30.6029 172.09C30.3096 172.89 30.056 173.707 29.8422 174.53C29.7495 174.89 29.6662 175.253 29.5868 175.617C29.5716 175.694 29.5546 175.772 29.5376 175.85C29.4638 176.214 29.3956 176.578 29.3351 176.942C29.3313 176.972 29.3275 177.004 29.3218 177.035C29.2632 177.391 29.2159 177.749 29.1742 178.108C29.1686 178.155 29.1629 178.201 29.1572 178.248C29.1137 178.633 29.0796 179.018 29.0531 179.404C29.0531 179.427 29.0512 179.452 29.0493 179.475C29.0001 180.278 28.9869 181.082 29.0134 181.884C29.0153 181.892 29.0153 181.897 29.0153 181.905C29.0872 183.985 29.424 186.038 30.0485 188.004C30.0523 188.023 30.0598 188.042 30.0655 188.061C30.1526 188.334 30.2472 188.605 30.3456 188.874C30.355 188.901 30.3664 188.927 30.374 188.956C30.6937 189.818 31.0722 190.66 31.5093 191.477C31.532 191.521 31.5547 191.56 31.5775 191.604C31.6967 191.822 31.8197 192.038 31.9464 192.254C31.9843 192.317 32.0221 192.379 32.0619 192.442C32.1811 192.641 32.3079 192.838 32.4366 193.033C32.4782 193.096 32.516 193.157 32.5577 193.217C32.709 193.441 32.8661 193.665 33.0288 193.885C33.0478 193.907 33.061 193.932 33.0799 193.955C33.2635 194.201 33.4508 194.444 33.6495 194.683C33.6855 194.728 33.729 194.776 33.7668 194.821C33.9201 195.005 34.0772 195.187 34.2399 195.367C34.308 195.441 34.3762 195.515 34.4443 195.589C34.5862 195.741 34.73 195.89 34.8757 196.038C34.9514 196.116 35.029 196.192 35.1066 196.268C35.2599 196.419 35.4169 196.565 35.5759 196.711C35.6497 196.778 35.7197 196.844 35.7935 196.909C36.0262 197.117 36.2628 197.322 36.5088 197.519C40.7078 200.92 45.166 200.941 49.6451 199.841C50.0179 199.748 50.3926 199.65 50.7653 199.544C51.2081 199.419 51.6528 199.28 52.0956 199.14C52.7712 198.922 53.4486 198.692 54.1223 198.45C56.5122 197.409 58.8 196.603 61.0292 196.11C61.2752 196.055 61.5212 196.004 61.7672 195.957C62.507 195.817 63.2394 195.71 63.966 195.642C64.2082 195.621 64.4504 195.602 64.6926 195.589C65.8999 195.519 67.0978 195.557 68.2899 195.716C69.4802 195.877 70.6685 196.158 71.8607 196.571C72.3356 196.738 72.8125 196.924 73.2912 197.134C74.7237 197.762 76.1656 198.588 77.6265 199.635C78.0031 199.906 78.3777 200.185 78.7448 200.469C81.3184 202.458 83.6648 204.744 86.0794 206.918C86.3973 207.207 86.7133 207.427 87.0293 207.595C87.2015 207.688 87.3718 207.77 87.544 207.828C87.5478 207.83 87.5516 207.83 87.5554 207.832C87.6765 207.874 87.7957 207.906 87.9187 207.933C87.9338 207.937 87.9509 207.937 87.966 207.94C88.0776 207.961 88.1893 207.98 88.3028 207.99C88.3104 207.99 88.3161 207.99 88.3199 207.99C88.5734 208.01 88.8308 207.999 89.0957 207.963C89.3436 207.927 89.5953 207.868 89.8583 207.785H89.8602C89.9889 207.743 90.1213 207.696 90.2538 207.643C90.39 207.591 90.5263 207.531 90.6701 207.466C90.9748 207.326 91.2794 207.176 91.5822 207.019C91.8868 206.862 92.1896 206.695 92.4924 206.522C93.0941 206.177 93.6902 205.8 94.273 205.392C94.8558 204.987 95.4216 204.552 95.9666 204.09C96.241 203.859 96.5097 203.62 96.769 203.377C97.2931 202.888 97.7889 202.372 98.2544 201.834C98.6045 201.43 98.9338 201.011 99.2441 200.583C99.4485 200.296 99.6452 200.003 99.8307 199.705C99.9234 199.557 100.014 199.405 100.103 199.256C100.224 199.045 100.338 198.831 100.449 198.617C100.548 198.423 100.642 198.228 100.733 198.031C100.856 197.764 100.97 197.492 101.076 197.216C101.303 196.62 101.488 196.008 101.625 195.382C101.99 193.682 102.171 191.623 101.782 189.833C101.746 189.67 101.704 189.507 101.657 189.348C101.613 189.194 101.564 189.043 101.509 188.893C101.485 188.819 101.454 188.747 101.424 188.675C101.305 188.379 101.165 188.097 100.998 187.833C100.858 187.611 100.703 187.401 100.531 187.206C100.436 187.1 100.336 186.993 100.228 186.897C100.071 186.749 99.9007 186.612 99.7153 186.485C99.3406 186.231 98.9091 186.025 98.4172 185.875C95.609 185.02 92.6059 185.882 89.7429 185.581C89.6047 185.566 89.4685 185.553 89.3322 185.532C89.0087 185.486 88.687 185.433 88.3691 185.376C87.4153 185.206 86.4824 184.993 85.5722 184.741C83.854 184.33 82.1775 183.767 80.5633 183.067C80.1016 182.868 79.6456 182.656 79.1914 182.434C78.0655 181.88 76.968 181.258 75.9121 180.576C72.1086 178.115 68.8216 174.86 66.3522 171.074C62.5714 165.4 60.5277 156.15 52.5063 156.004C43.55 155.82 35.0971 161.642 31.5888 169.726Z" fill="white" fill-opacity="0.136965"/>
<path fill-rule="evenodd" clip-rule="evenodd" d="M46.6446 343.972C47.0122 344.701 47.4122 345.411 47.8464 346.099C48.2787 346.788 48.7453 347.456 49.2386 348.099C49.4576 348.38 49.6804 348.654 49.9071 348.926C49.9566 348.985 50.0061 349.042 50.0556 349.102C50.2842 349.37 50.5165 349.634 50.7565 349.892C50.7774 349.913 50.7984 349.936 50.8174 349.957C51.0536 350.208 51.2936 350.455 51.5393 350.696C51.5716 350.726 51.604 350.759 51.6345 350.789C51.8992 351.048 52.1696 351.298 52.4458 351.543C52.4629 351.559 52.4782 351.572 52.4953 351.587C53.0705 352.096 53.6685 352.575 54.2856 353.021C54.2913 353.026 54.297 353.03 54.3027 353.034C55.9063 354.195 57.647 355.139 59.4868 355.814L59.542 355.833C59.7972 355.927 60.0562 356.015 60.3153 356.097C60.3419 356.105 60.3686 356.115 60.3953 356.122C61.2294 356.384 62.0827 356.591 62.9511 356.738C62.9968 356.746 63.0406 356.752 63.0863 356.759C63.3206 356.798 63.5548 356.83 63.791 356.859C63.8596 356.869 63.9281 356.876 63.9986 356.884C64.2195 356.909 64.4404 356.928 64.6633 356.945C64.7318 356.951 64.8004 356.957 64.869 356.96C65.128 356.976 65.387 356.989 65.6479 356.995C65.6746 356.995 65.7012 356.997 65.7298 356.997C66.0212 357.003 66.3126 357.001 66.6059 356.991C66.6649 356.989 66.724 356.985 66.7811 356.981C67.0077 356.974 67.2382 356.96 67.4667 356.943C67.56 356.936 67.6572 356.928 67.7524 356.918C67.9486 356.899 68.1447 356.878 68.3428 356.853C68.4437 356.842 68.5466 356.828 68.6494 356.813C68.8513 356.784 69.0532 356.752 69.2551 356.717C69.3484 356.7 69.4379 356.687 69.5312 356.67C69.8207 356.614 70.1121 356.553 70.4073 356.484C75.4105 355.292 78.0216 351.932 79.8023 347.898C79.9508 347.563 80.0937 347.223 80.2327 346.878C80.3965 346.469 80.5508 346.053 80.7031 345.634C80.9336 344.997 81.1545 344.349 81.3659 343.698C81.9753 341.281 82.7029 339.079 83.6284 337.106C83.7313 336.886 83.836 336.67 83.9446 336.455C84.2684 335.814 84.615 335.198 84.9902 334.609C85.1121 334.412 85.2416 334.218 85.3711 334.027C86.0224 333.072 86.748 332.19 87.5613 331.381C88.3764 330.571 89.2811 329.837 90.2847 329.178C90.6866 328.912 91.1056 328.662 91.5398 328.422C92.8482 327.705 94.3071 327.096 95.9469 326.603C96.3697 326.475 96.7963 326.356 97.2248 326.243C100.219 325.458 103.304 325.018 106.347 324.462C106.747 324.389 107.096 324.278 107.408 324.138C107.578 324.062 107.74 323.979 107.884 323.884C107.888 323.882 107.89 323.88 107.892 323.878C107.995 323.811 108.09 323.738 108.181 323.662C108.191 323.652 108.201 323.641 108.214 323.629C108.296 323.558 108.374 323.484 108.446 323.403C108.45 323.4 108.454 323.396 108.458 323.39C108.62 323.21 108.762 323.011 108.888 322.789H108.89C109.006 322.581 109.109 322.355 109.198 322.108C109.2 322.106 109.2 322.106 109.2 322.104C109.244 321.984 109.286 321.857 109.322 321.725C109.362 321.591 109.398 321.452 109.433 321.308C109.503 320.994 109.568 320.677 109.627 320.355C109.686 320.032 109.739 319.706 109.783 319.377C109.875 318.719 109.937 318.047 109.972 317.37C110.006 316.693 110.01 316.008 109.979 315.325C109.964 314.984 109.941 314.641 109.911 314.301C109.848 313.62 109.751 312.942 109.616 312.276C109.517 311.777 109.393 311.283 109.25 310.797C109.155 310.474 109.05 310.154 108.934 309.84C108.877 309.684 108.816 309.527 108.753 309.372C108.665 309.157 108.572 308.945 108.475 308.736C108.387 308.549 108.296 308.363 108.199 308.178C108.071 307.931 107.934 307.686 107.787 307.445C107.471 306.924 107.121 306.427 106.728 305.958C105.662 304.687 104.218 303.348 102.647 302.598C102.504 302.529 102.357 302.468 102.213 302.408C102.07 302.351 101.927 302.299 101.784 302.253C101.712 302.232 101.641 302.211 101.569 302.19C101.278 302.11 100.982 302.053 100.687 302.024C100.44 301.997 100.192 301.993 99.9425 302.01C99.8073 302.02 99.6721 302.033 99.535 302.056C99.3331 302.091 99.1312 302.141 98.9274 302.206C98.518 302.341 98.1104 302.546 97.7123 302.831C95.4326 304.458 94.3337 307.232 92.4387 309.224C92.3473 309.32 92.2578 309.416 92.1626 309.508C91.9379 309.724 91.7131 309.936 91.4846 310.143C90.8009 310.767 90.0962 311.348 89.3782 311.89C88.0698 312.95 86.67 313.888 85.2016 314.703C84.7826 314.936 84.3579 315.158 83.9275 315.37C82.8533 315.901 81.7487 316.367 80.6193 316.767C76.5551 318.208 72.1918 318.794 67.9067 318.451C61.4408 317.998 53.2933 314.142 48.5111 320.127C43.1594 326.794 42.6109 336.595 46.6446 343.972Z" fill="white" fill-opacity="0.136965"/>
<path fill-rule="evenodd" clip-rule="evenodd" d="M453.606 311.839C453.95 311.105 454.259 310.355 454.531 309.593C454.805 308.832 455.042 308.057 455.242 307.275C455.326 306.933 455.403 306.589 455.477 306.244C455.491 306.17 455.508 306.095 455.523 306.021C455.59 305.676 455.654 305.332 455.709 304.987C455.715 304.956 455.719 304.926 455.721 304.897C455.774 304.559 455.816 304.219 455.855 303.879C455.86 303.836 455.866 303.792 455.87 303.747C455.908 303.382 455.939 303.016 455.96 302.651C455.96 302.628 455.96 302.605 455.962 302.583C456.006 301.821 456.012 301.06 455.979 300.3C455.979 300.294 455.977 300.287 455.977 300.279C455.893 298.31 455.556 296.368 454.943 294.511C454.937 294.492 454.929 294.473 454.924 294.456C454.839 294.197 454.749 293.943 454.652 293.688C454.642 293.662 454.632 293.637 454.621 293.611C454.309 292.796 453.943 292 453.517 291.229C453.495 291.189 453.473 291.15 453.45 291.11C453.334 290.905 453.215 290.7 453.09 290.496C453.056 290.438 453.017 290.379 452.981 290.32C452.862 290.13 452.742 289.946 452.615 289.762C452.579 289.703 452.539 289.646 452.5 289.589C452.353 289.376 452.201 289.167 452.044 288.958C452.027 288.937 452.012 288.915 451.994 288.894C451.816 288.66 451.634 288.432 451.445 288.208C451.408 288.165 451.366 288.121 451.33 288.077C451.18 287.904 451.029 287.734 450.872 287.565C450.807 287.494 450.742 287.426 450.675 287.356C450.538 287.213 450.399 287.071 450.259 286.932C450.184 286.86 450.111 286.788 450.037 286.716C449.889 286.575 449.734 286.437 449.581 286.3C449.512 286.237 449.445 286.175 449.374 286.114C449.15 285.92 448.922 285.728 448.684 285.54C444.634 282.35 440.368 282.364 436.084 283.44C435.728 283.53 435.37 283.626 435.013 283.729C434.59 283.852 434.168 283.985 433.743 284.122C433.097 284.333 432.45 284.557 431.806 284.79C429.526 285.797 427.341 286.575 425.212 287.059C424.975 287.115 424.739 287.164 424.503 287.209C423.796 287.35 423.095 287.454 422.4 287.525C422.168 287.547 421.936 287.566 421.704 287.582C420.547 287.658 419.402 287.629 418.26 287.487C417.116 287.344 415.974 287.088 414.833 286.704C414.375 286.551 413.917 286.376 413.457 286.182C412.08 285.599 410.695 284.826 409.287 283.845C408.923 283.59 408.564 283.33 408.21 283.064C405.731 281.198 403.466 279.048 401.135 277.005C400.828 276.737 400.526 276.53 400.221 276.371C400.056 276.285 399.892 276.209 399.725 276.154C399.723 276.154 399.719 276.152 399.715 276.152C399.6 276.115 399.484 276.082 399.367 276.059C399.353 276.056 399.336 276.056 399.321 276.052C399.213 276.033 399.108 276.016 398.999 276.008H398.98C398.738 275.991 398.491 276.001 398.24 276.039C398.003 276.075 397.761 276.132 397.51 276.213L397.508 276.215C397.384 276.255 397.259 276.299 397.131 276.35C397.003 276.401 396.871 276.458 396.736 276.521C396.445 276.658 396.156 276.802 395.865 276.952C395.575 277.104 395.286 277.263 394.997 277.429C394.422 277.761 393.855 278.123 393.3 278.513C392.746 278.902 392.206 279.32 391.686 279.76C391.426 279.982 391.171 280.208 390.922 280.442C390.426 280.909 389.953 281.401 389.512 281.915C389.183 282.301 388.868 282.698 388.577 283.108C388.382 283.381 388.194 283.661 388.02 283.943C387.932 284.086 387.847 284.228 387.763 284.373C387.648 284.574 387.541 284.777 387.435 284.98C387.342 285.164 387.252 285.351 387.167 285.537C387.052 285.793 386.945 286.049 386.847 286.311C386.633 286.877 386.46 287.458 386.336 288.053C385.997 289.669 385.84 291.621 386.227 293.312C386.263 293.468 386.303 293.62 386.349 293.77C386.391 293.916 386.439 294.061 386.493 294.201C386.518 294.271 386.547 294.34 386.577 294.408C386.692 294.685 386.832 294.951 386.993 295.202C387.127 295.411 387.276 295.608 387.445 295.792C387.537 295.895 387.631 295.992 387.734 296.085C387.888 296.221 388.052 296.351 388.23 296.468C388.591 296.708 389.004 296.899 389.476 297.038C392.175 297.828 395.043 296.989 397.788 297.251C397.92 297.264 398.051 297.277 398.181 297.294C398.491 297.338 398.802 297.384 399.106 297.437C400.02 297.591 400.915 297.784 401.788 298.016C403.438 298.392 405.045 298.914 406.599 299.565C407.041 299.751 407.482 299.947 407.915 300.154C409.001 300.67 410.057 301.251 411.072 301.891C414.733 304.195 417.906 307.254 420.3 310.822C423.961 316.171 425.992 324.921 433.676 324.999C442.251 325.105 450.305 319.526 453.606 311.839Z" fill="white" fill-opacity="0.136965"/>
<path fill-rule="evenodd" clip-rule="evenodd" d="M169.745 440.917C170.49 441.238 171.25 441.526 172.019 441.774C172.791 442.024 173.572 442.236 174.359 442.411C174.703 442.488 175.05 442.554 175.398 442.615C175.472 442.629 175.546 442.642 175.62 442.656C175.966 442.713 176.314 442.766 176.664 442.81C176.69 442.814 176.721 442.816 176.751 442.82C177.091 442.862 177.431 442.896 177.773 442.923L177.906 442.934C178.271 442.961 178.64 442.98 179.005 442.989C179.028 442.991 179.049 442.991 179.071 442.991C179.837 443.012 180.599 442.995 181.356 442.942C181.363 442.942 181.371 442.94 181.376 442.94C183.345 442.797 185.28 442.402 187.119 441.738L187.174 441.719C187.429 441.625 187.682 441.528 187.932 441.425C187.959 441.413 187.986 441.402 188.008 441.392C188.816 441.057 189.601 440.667 190.361 440.223C190.399 440.2 190.437 440.175 190.475 440.152C190.68 440.032 190.88 439.906 191.081 439.776C191.138 439.738 191.197 439.7 191.254 439.662C191.438 439.538 191.623 439.412 191.801 439.282C191.858 439.242 191.915 439.202 191.971 439.162C192.18 439.009 192.385 438.851 192.588 438.689C192.609 438.67 192.63 438.654 192.653 438.637C192.879 438.454 193.101 438.265 193.32 438.069C193.365 438.031 193.405 437.991 193.449 437.95C193.618 437.798 193.783 437.641 193.949 437.481C194.017 437.414 194.086 437.346 194.152 437.279C194.291 437.14 194.428 436.996 194.564 436.851C194.635 436.775 194.703 436.701 194.773 436.623C194.908 436.472 195.043 436.315 195.176 436.159C195.235 436.088 195.296 436.02 195.357 435.947C195.543 435.716 195.729 435.483 195.91 435.241C198.983 431.118 198.844 426.869 197.645 422.637C197.544 422.286 197.436 421.933 197.324 421.58C197.187 421.162 197.042 420.744 196.892 420.327C196.662 419.691 196.421 419.054 196.166 418.419C195.097 416.179 194.251 414.026 193.705 411.92C193.645 411.685 193.588 411.453 193.536 411.22C193.375 410.52 193.249 409.827 193.158 409.134C193.13 408.905 193.103 408.675 193.08 408.444C192.974 407.295 192.968 406.154 193.076 405.011C193.185 403.87 193.409 402.727 193.761 401.577C193.899 401.117 194.061 400.657 194.241 400.194C194.785 398.807 195.518 397.402 196.459 395.971C196.702 395.603 196.951 395.239 197.208 394.878C199.002 392.354 201.086 390.038 203.063 387.656C203.323 387.344 203.519 387.034 203.671 386.727C203.752 386.561 203.823 386.395 203.872 386.227C203.874 386.224 203.874 386.222 203.876 386.218C203.91 386.101 203.937 385.985 203.958 385.867C203.961 385.853 203.961 385.838 203.963 385.823C203.98 385.714 203.992 385.607 203.997 385.5V385.481C204.007 385.241 203.99 384.995 203.944 384.747V384.745C203.902 384.51 203.836 384.272 203.75 384.024C203.75 384.024 203.749 384.024 203.749 384.022C203.705 383.9 203.657 383.778 203.6 383.652C203.545 383.524 203.484 383.394 203.418 383.262C203.275 382.976 203.121 382.692 202.96 382.408C202.802 382.123 202.635 381.841 202.46 381.559C202.11 380.996 201.732 380.44 201.326 379.901C200.921 379.361 200.49 378.834 200.032 378.33C199.802 378.078 199.566 377.832 199.327 377.592C198.844 377.111 198.34 376.655 197.814 376.232C197.419 375.913 197.01 375.611 196.592 375.333C196.311 375.148 196.028 374.97 195.741 374.804C195.596 374.72 195.45 374.64 195.302 374.562C195.1 374.453 194.893 374.352 194.686 374.255C194.498 374.165 194.312 374.083 194.12 374.003C193.861 373.896 193.603 373.797 193.337 373.705C192.765 373.511 192.18 373.354 191.579 373.249C189.954 372.959 187.997 372.86 186.317 373.295C186.161 373.335 186.011 373.381 185.859 373.429C185.715 373.478 185.574 373.53 185.435 373.587C185.367 373.616 185.299 373.644 185.23 373.675C184.955 373.801 184.692 373.946 184.447 374.114C184.244 374.253 184.05 374.409 183.871 374.581C183.773 374.675 183.676 374.774 183.586 374.879C183.453 375.035 183.328 375.203 183.218 375.382C182.99 375.749 182.807 376.167 182.684 376.642C181.973 379.349 182.897 382.181 182.712 384.92C182.703 385.052 182.693 385.184 182.682 385.315C182.648 385.624 182.61 385.934 182.566 386.237C182.439 387.155 182.271 388.049 182.064 388.925C181.736 390.578 181.262 392.195 180.654 393.76C180.481 394.208 180.299 394.651 180.103 395.088C179.617 396.185 179.068 397.252 178.458 398.282C176.263 401.995 173.291 405.244 169.792 407.732C164.549 411.537 155.856 413.813 156.002 421.466C156.144 430.008 161.959 437.859 169.745 440.917Z" fill="white" fill-opacity="0.136965"/>
<path fill-rule="evenodd" clip-rule="evenodd" d="M342.641 423.014C343.437 422.689 344.217 422.326 344.976 421.927C345.735 421.527 346.475 421.094 347.192 420.626C347.505 420.423 347.812 420.208 348.117 419.991C348.182 419.945 348.247 419.898 348.314 419.85C348.613 419.632 348.911 419.409 349.201 419.177C349.226 419.158 349.251 419.137 349.277 419.118C349.56 418.892 349.836 418.658 350.111 418.42C350.147 418.39 350.183 418.359 350.219 418.329C350.511 418.07 350.796 417.808 351.078 417.538C351.095 417.523 351.11 417.506 351.127 417.489C351.709 416.926 352.262 416.336 352.783 415.724C352.787 415.718 352.793 415.712 352.798 415.707C354.151 414.115 355.288 412.36 356.15 410.481C356.157 410.462 356.167 410.443 356.175 410.424C356.293 410.164 356.407 409.899 356.514 409.633C356.526 409.606 356.537 409.58 356.548 409.551C356.894 408.696 357.182 407.815 357.407 406.914C357.42 406.866 357.43 406.821 357.441 406.773C357.5 406.532 357.554 406.286 357.605 406.041C357.62 405.969 357.634 405.897 357.647 405.822C357.693 405.592 357.731 405.362 357.769 405.13C357.781 405.058 357.79 404.986 357.802 404.913C357.84 404.643 357.872 404.371 357.901 404.098L357.912 404.012C357.941 403.706 357.962 403.398 357.977 403.088C357.981 403.027 357.981 402.966 357.983 402.903C357.994 402.664 358 402.422 358 402.179C358 402.08 357.998 401.977 357.996 401.877C357.994 401.669 357.989 401.46 357.979 401.251C357.973 401.143 357.968 401.034 357.962 400.924C357.948 400.711 357.931 400.494 357.91 400.277C357.901 400.18 357.893 400.083 357.884 399.986C357.851 399.675 357.811 399.363 357.762 399.049C356.926 393.687 353.613 390.661 349.525 388.453C349.186 388.269 348.838 388.09 348.488 387.917C348.074 387.712 347.65 387.514 347.223 387.32C346.572 387.023 345.911 386.738 345.243 386.461C342.756 385.622 340.503 384.675 338.506 383.536C338.285 383.41 338.067 383.281 337.85 383.15C337.203 382.756 336.585 382.34 335.998 381.899C335.801 381.752 335.606 381.602 335.418 381.45C334.47 380.685 333.604 379.849 332.822 378.925C332.038 378.002 331.341 376.991 330.733 375.878C330.489 375.435 330.26 374.973 330.044 374.496C329.4 373.06 328.883 371.474 328.499 369.71C328.4 369.253 328.31 368.795 328.228 368.335C327.652 365.119 327.448 361.837 327.115 358.591C327.073 358.163 326.985 357.787 326.865 357.446C326.798 357.262 326.725 357.085 326.636 356.925C326.634 356.921 326.632 356.918 326.63 356.916C326.569 356.804 326.5 356.697 326.428 356.596C326.418 356.581 326.407 356.572 326.397 356.558C326.329 356.465 326.256 356.378 326.18 356.294C326.174 356.29 326.17 356.286 326.165 356.281C325.991 356.096 325.793 355.929 325.571 355.779C325.569 355.779 325.569 355.779 325.569 355.779C325.36 355.638 325.131 355.509 324.879 355.395H324.877C324.753 355.337 324.625 355.284 324.488 355.233C324.353 355.182 324.209 355.132 324.061 355.085C323.736 354.984 323.408 354.889 323.075 354.799C322.741 354.712 322.403 354.63 322.062 354.554C321.377 354.404 320.677 354.282 319.967 354.191C319.258 354.1 318.54 354.039 317.819 354.014C317.461 354.001 317.098 353.997 316.74 354.003C316.019 354.012 315.3 354.058 314.588 354.145C314.056 354.208 313.526 354.295 313.005 354.408C312.656 354.48 312.313 354.565 311.973 354.661C311.801 354.71 311.634 354.759 311.466 354.813C311.233 354.887 311.002 354.969 310.775 355.054C310.571 355.13 310.367 355.21 310.167 355.296C309.894 355.412 309.625 355.537 309.362 355.668C308.788 355.959 308.236 356.288 307.712 356.661C306.287 357.678 304.761 359.084 303.842 360.677C303.758 360.824 303.68 360.972 303.605 361.12C303.535 361.265 303.47 361.411 303.409 361.558C303.378 361.63 303.351 361.704 303.325 361.778C303.214 362.079 303.13 362.383 303.075 362.691C303.027 362.949 303.002 363.21 303 363.472C302.999 363.617 303.002 363.761 303.014 363.906C303.033 364.123 303.067 364.341 303.121 364.558C303.229 365.001 303.411 365.446 303.676 365.887C305.194 368.42 308.019 369.808 309.951 371.965C310.045 372.068 310.138 372.172 310.228 372.279C310.436 372.533 310.64 372.788 310.838 373.045C311.437 373.817 311.988 374.604 312.498 375.405C313.503 376.871 314.373 378.421 315.105 380.031C315.315 380.491 315.511 380.957 315.7 381.427C316.168 382.602 316.564 383.802 316.892 385.023C318.067 389.419 318.319 394.057 317.604 398.537C316.589 405.305 311.859 413.556 317.749 419.082C324.309 425.266 334.557 426.65 342.641 423.014Z" fill="white" fill-opacity="0.136965"/>
<path fill-rule="evenodd" clip-rule="evenodd" d="M188.403 65.1021C81.681 94.6798 20.6974 219.284 75.4981 318.821C108.303 378.402 176.077 413.174 243.526 409.771C320.594 405.887 397.748 353.722 420.303 278.341C455.058 162.175 348.793 54.8762 234.138 58.0695C218.718 58.4989 203.254 60.9855 188.403 65.1021Z" fill="#EB0065"/>
<path fill-rule="evenodd" clip-rule="evenodd" d="M363.431 105C357.732 116.621 371.855 123.354 376.242 132.621C381.999 144.986 386.446 157.743 389.736 170.814C390.311 173.119 390.84 175.437 391.326 177.765C393.26 187.071 394.427 196.52 394.505 206.126C394.591 210.637 394.478 215.119 394.17 219.586C390.21 277.428 353.331 332.49 296.903 353.327C291.229 356.014 285.419 358.41 279.5 360.513C249.908 371.033 217.621 374.271 186.429 370.205C179.828 369.347 173.26 368.189 166.762 366.797C160.536 365.762 154.438 364.187 148.489 362.121C133.713 357.022 120.32 349.177 108.518 339.364C106.157 337.403 103.861 335.36 101.632 333.247C93.9191 325.236 86.6312 316.695 80.4837 307.365C79.4594 305.811 78.4656 304.231 77.5061 302.625C69.3862 289.32 63.134 274.583 61.3729 258.882C61.095 255.951 59.4805 253.145 56.4134 252.09C54.0488 269.793 62.3496 286.22 68.0573 302.338C68.7065 304.066 69.3748 305.748 70.0697 307.413C73.5385 315.7 77.7022 323.611 82.9453 331.111C84.9444 334.058 87.0367 336.906 89.2223 339.689C104.516 359.158 124.266 375.473 145.429 387.976C149.81 390.266 154.225 392.356 158.709 394.272C172.154 400.02 186.295 404.244 200.728 406.843C209.28 408.383 217.937 409.351 226.611 409.727C234.419 410.169 242.19 410.069 249.891 409.463C257.592 408.856 265.223 407.745 272.747 406.167C282.06 404.115 291.304 401.385 300.368 398.025C318.218 391.369 335.435 382.326 351.118 371.163C356.346 367.442 361.407 363.486 366.26 359.304C408.373 326.005 432.207 271.112 426.035 217.72C425.562 213.606 424.909 209.501 424.076 205.406C420.401 186.247 413.325 167.837 403.411 151.173C402.174 149.09 400.891 147.034 399.564 145.008C389.578 131.094 379.341 117 365.561 106.767C364.733 106.166 364.046 105.577 363.431 105Z" fill="#BE0152"/>
<path fill-rule="evenodd" clip-rule="evenodd" d="M343.733 108.905C344.078 108.443 344.551 108.034 345.178 107.667C348.709 105.595 352.361 103.671 355.643 101.215C364.113 94.8814 365.807 87.0469 364.776 76.8502C364.719 75.1022 364.708 73.3619 364.826 71.6653C365.178 66.5755 366.697 61.887 371.669 58.6079C379.954 53.1396 390.079 54.2999 397.982 59.3231C399.563 60.3274 401.056 61.4876 402.425 62.7791C409.714 69.1965 412.971 80.0627 409.77 89.4359C406.924 97.8371 396.552 96.8785 389.339 98.9498C380.819 101.31 373.178 106.959 368.572 114.6C367.812 115.764 367.115 116.994 366.481 118.293C365.017 121.291 365 124.95 363.072 127.75C360.498 131.491 355.38 129.859 352.039 127.927C346.72 124.853 343.788 118.215 343.062 112.317C342.89 110.908 343.062 109.805 343.733 108.905Z" fill="#302D6D"/>
<path fill-rule="evenodd" clip-rule="evenodd" d="M402.426 62.4469C401.054 61.149 399.562 59.9831 397.98 58.9738C394.889 56.9974 391.453 55.6212 387.922 55C391.375 56.4852 394.573 58.4367 397.257 61.3096C404.841 68.7507 409.639 82.6697 401.308 89.6387C395.978 94.0732 387.839 94.488 380.331 95.5775C377.063 96.1356 373.129 97.3303 371.076 100.878C365.956 109.256 360.959 124.524 349.498 116.311C347.247 114.82 344.537 112.83 343.071 110.397C342.978 110.945 342.978 111.551 343.061 112.23C343.787 118.157 346.719 124.828 352.036 127.917C355.379 129.859 360.495 131.499 363.071 127.739C364.997 124.925 365.016 121.248 366.479 118.235C367.113 116.93 367.812 115.693 368.572 114.523C373.178 106.845 380.819 101.168 389.339 98.7963C396.55 96.7148 406.924 97.6782 409.771 89.2354C412.97 79.8159 409.714 68.896 402.426 62.4469Z" fill="#BE0152"/>
<path fill-rule="evenodd" clip-rule="evenodd" d="M349.466 116.649C361 124.856 366.025 109.597 371.178 101.223C373.244 97.6776 377.202 96.4835 380.487 95.9257C388.042 94.8367 396.231 94.4221 401.595 89.9898C409.975 83.0242 405.149 69.1121 397.519 61.6745C394.818 58.8031 391.6 56.8525 388.126 55.368C382.605 54.4052 376.846 55.2783 371.773 58.6197C366.77 61.9153 365.242 66.6246 364.887 71.7371C364.769 73.4412 364.78 75.1893 364.838 76.945C365.874 87.1871 364.171 95.0564 355.648 101.416C352.346 103.883 348.671 105.818 345.119 107.899C344.488 108.267 344.012 108.678 343.665 109.142C343.313 109.612 343.101 110.14 343 110.738C344.475 113.17 347.204 115.158 349.466 116.649Z" fill="#EB0065"/>
<path fill-rule="evenodd" clip-rule="evenodd" d="M370.79 76.8153C369.293 73.5937 370.15 69.7913 371.487 66.7665C373.601 62.7463 379.473 58.3267 382.832 63.0234C385.959 67.2022 382.077 71.9371 379.72 75.6956C378.15 78.2006 374.393 78.5999 371.565 77.2012C371.315 77.0809 371.059 76.9528 370.79 76.8153Z" fill="#BE0152"/>
<mask id="mask0" mask-type="alpha" maskUnits="userSpaceOnUse" x="0" y="236" width="78" height="48">
<path fill-rule="evenodd" clip-rule="evenodd" d="M0 236.168H77.6153V283.121H0V236.168Z" fill="white"/>
</mask>
<g mask="url(#mask0)">
<path fill-rule="evenodd" clip-rule="evenodd" d="M67.7502 243.603C67.2099 243.608 66.6373 243.742 66.0114 244.014C62.4786 245.536 58.9914 247.232 55.3083 248.359C45.8094 251.267 38.934 248.25 31.7846 241.886C30.4929 240.883 29.1821 239.92 27.8314 239.08C23.7811 236.554 19.3864 235.128 14.1395 237.076C5.39779 240.32 0.649304 248.582 0.0614499 257.291C-0.0565013 259.032 -0.00513545 260.79 0.20984 262.53C1.02028 271.538 7.43911 279.949 16.314 282.675C24.2586 285.138 29.2943 276.796 34.8723 272.5C41.3938 267.375 49.9168 264.716 58.2609 265.434C59.564 265.502 60.8843 265.651 62.2198 265.885C65.3037 266.425 68.0851 268.417 71.2774 268.5C75.5388 268.612 77.1445 263.862 77.5402 260.287C78.168 254.596 74.7683 248.748 70.7085 244.969C69.7364 244.066 68.8042 243.591 67.7502 243.603Z" fill="#EB0065"/>
</g>
<path fill-rule="evenodd" clip-rule="evenodd" d="M0.21003 262.252C-0.00684795 260.49 -0.0563114 258.707 0.0616399 256.943C0.291835 253.491 1.16315 250.108 2.65657 247.071C1.85754 250.526 1.55125 254.047 2.22471 257.68C3.6173 267.58 11.4401 278.93 21.3214 276.425C27.6223 274.808 32.4583 268.827 37.4503 263.699C39.6875 261.515 42.7733 259.173 46.5877 259.566C55.7441 260.287 70.0257 264.911 70.2065 251.628C70.332 249.087 70.3396 245.918 69.3199 243.455C69.7841 243.688 70.2426 244.024 70.7087 244.463C74.7685 248.291 78.1682 254.215 77.5385 259.978C77.1447 263.602 75.539 268.413 71.2756 268.298C68.0853 268.216 65.3039 266.198 62.22 265.65C60.8845 265.411 59.5642 265.263 58.2611 265.194C49.917 264.466 41.3921 267.16 34.8725 272.351C29.2945 276.704 24.2588 285.151 16.3142 282.658C7.4393 279.896 1.02047 271.377 0.21003 262.252Z" fill="#BE0152"/>
<path fill-rule="evenodd" clip-rule="evenodd" d="M68.9412 251.991C68.7615 265.201 54.5656 260.603 45.466 259.885C41.6745 259.494 38.6053 261.823 36.3815 263.995C31.4194 269.094 26.6143 275.042 20.3513 276.65C10.5293 279.141 2.75339 267.855 1.36916 258.009C0.697845 254.397 1.0023 250.896 1.79842 247.46C4.10925 242.767 7.92345 238.904 13.2126 236.914C18.4281 234.953 22.7964 236.39 26.8224 238.932C28.1631 239.781 29.466 240.751 30.7519 241.759C37.8584 248.17 44.6907 251.211 54.1344 248.282C57.7955 247.145 61.2617 245.436 64.7715 243.902C65.3936 243.631 65.9647 243.494 66.5017 243.488C67.0464 243.484 67.5607 243.614 68.0618 243.864C69.0754 246.313 69.0679 249.465 68.9412 251.991Z" fill="#EB0065"/>
<path fill-rule="evenodd" clip-rule="evenodd" d="M28 245.929C26.4548 243.096 23.1863 241.709 20.2332 241.093C16.117 240.526 9.64318 242.549 11.2514 247.559C12.6056 252.118 18.2169 251.746 22.2718 251.992C24.9764 252.158 27.3322 249.568 27.8572 246.714C27.9054 246.463 27.9536 246.202 28 245.929Z" fill="#BE0152"/>
<mask id="mask1" mask-type="alpha" maskUnits="userSpaceOnUse" x="198" y="0" width="50" height="82">
<path fill-rule="evenodd" clip-rule="evenodd" d="M198.598 0.258057H247.568V81.3596H198.598V0.258057Z" fill="white"/>
</mask>
<g mask="url(#mask1)">
<path fill-rule="evenodd" clip-rule="evenodd" d="M212.467 72.931C212.405 72.3678 212.473 71.755 212.677 71.0677C213.822 67.2037 215.152 63.3588 215.867 59.3841C217.709 49.1323 213.722 42.3627 206.221 35.7305C205.021 34.5125 203.856 33.2697 202.815 31.9715C199.687 28.0788 197.662 23.6879 199.036 17.9836C201.323 8.47438 209.319 2.49129 218.293 0.778833C220.087 0.435197 221.921 0.263379 223.759 0.269106C233.217 -0.028712 242.752 5.58592 246.687 14.4727C250.23 22.426 242.189 28.7222 238.415 35.068C233.901 42.5001 232.193 51.7038 233.976 60.2947C234.207 61.6426 234.526 62.9961 234.934 64.3573C235.878 67.4958 238.292 70.138 238.776 73.4484C239.42 77.8679 234.685 80.1397 231.016 81.0046C225.18 82.3772 218.684 79.5823 214.252 75.8347C213.195 74.9375 212.585 74.0268 212.467 72.931Z" fill="#EB0065"/>
</g>
<path fill-rule="evenodd" clip-rule="evenodd" d="M221.26 74.481C235.051 72.6342 228.447 58.3656 226.545 48.9352C225.657 45.0184 227.704 41.5175 229.693 38.9191C234.398 33.0887 240.009 27.3157 240.9 20.56C242.263 9.97539 229.475 3.25983 219.006 3.04615C215.142 2.80004 211.52 3.55936 208.028 4.82043C203.411 7.82717 199.853 12.3029 198.443 18.0837C197.051 23.7862 199.106 28.1742 202.275 32.0642C203.332 33.3616 204.512 34.6036 205.73 35.8208C213.332 42.4486 217.376 49.2137 215.507 59.4588C214.782 63.4309 213.433 67.2713 212.275 71.1347C212.066 71.8196 211.997 72.4339 212.059 72.9967C212.124 73.5672 212.323 74.0861 212.65 74.5802C215.339 75.3338 218.634 74.9294 221.26 74.481Z" fill="#EB0065"/>
<path fill-rule="evenodd" clip-rule="evenodd" d="M210.346 31C207.213 29.7322 205.368 26.4598 204.361 23.4178C203.26 19.144 204.556 12.0512 209.959 13.1055C214.861 13.952 215.172 19.9243 215.932 24.1755C216.439 27.0096 214.042 29.8286 211.143 30.7487C210.889 30.8337 210.623 30.9169 210.346 31Z" fill="#BE0152"/>
<path fill-rule="evenodd" clip-rule="evenodd" d="M119.92 345.513C119.635 345.971 119.442 346.524 119.335 347.195C118.74 350.98 118.313 354.821 117.297 358.522C114.673 368.065 108.382 372.217 99.0745 374.798C97.5191 375.345 95.9867 375.927 94.5384 376.609C90.1936 378.652 86.6046 381.578 85.4452 387.029C83.5186 396.12 88.0433 404.55 95.1908 409.727C96.62 410.762 98.1543 411.666 99.7633 412.421C107.923 416.586 118.589 415.718 125.706 409.731C132.096 404.383 127.661 395.665 126.98 388.672C126.1 380.438 128.413 371.848 133.523 365.227C134.284 364.167 135.122 363.138 136.043 362.144C138.166 359.845 141.373 358.579 143.161 355.943C145.555 352.422 142.35 348.52 139.496 346.264C134.956 342.677 128.113 342.385 122.685 343.765C121.388 344.096 120.479 344.624 119.92 345.513Z" fill="#383075"/>
<path fill-rule="evenodd" clip-rule="evenodd" d="M100.369 412.421C98.7817 411.666 97.2684 410.762 95.8589 409.727C93.0984 407.7 90.7397 405.172 89 402.305C91.4568 404.813 94.2324 406.938 97.6251 408.302C106.626 412.387 120.255 411.842 123.413 402.215C125.412 396.061 122.989 388.827 121.362 381.911C120.728 378.874 120.413 375.036 122.768 372.043C128.236 364.735 139.682 355.194 128.691 347.99C126.636 346.535 123.997 344.845 121.4 344.395C121.84 344.128 122.362 343.922 122.976 343.765C128.329 342.385 135.08 342.677 139.558 346.264C142.371 348.518 145.534 352.422 143.173 355.943C141.407 358.577 138.245 359.843 136.15 362.142C135.243 363.138 134.416 364.167 133.665 365.227C128.627 371.848 126.346 380.438 127.214 388.672C127.884 395.665 132.257 404.381 125.957 409.731C118.936 415.718 108.416 416.586 100.369 412.421Z" fill="#BE0152"/>
<path fill-rule="evenodd" clip-rule="evenodd" d="M123.361 371.933C120.98 374.957 121.299 378.834 121.94 381.903C123.586 388.89 126.035 396.201 124.013 402.416C120.82 412.143 107.044 412.695 97.9438 408.568C94.5142 407.188 90.7102 405.041 88.2248 402.51C85.4895 398.004 84.2745 392.664 85.4437 387.074C86.5977 381.566 90.1761 378.611 94.5099 376.546C95.9538 375.858 97.4798 375.269 99.0325 374.716C108.31 372.109 114.582 367.914 117.199 358.273C118.214 354.534 118.637 350.653 119.232 346.829C119.337 346.151 119.53 345.592 119.814 345.13C120.106 344.661 120.493 344.294 120.978 344C123.604 344.455 127.271 346.162 129.348 347.632C140.459 354.912 128.889 364.55 123.361 371.933Z" fill="#EB0065"/>
<path fill-rule="evenodd" clip-rule="evenodd" d="M101.064 380.018C97.7686 379.783 94.7864 381.889 92.6422 384.16C89.9091 387.482 88.1311 394.359 93.3443 395.771C98.0309 397.152 100.768 391.974 103.191 388.521C104.807 386.22 103.85 382.668 101.662 380.586C101.474 380.401 101.274 380.213 101.064 380.018Z" fill="#BE0152"/>
<path fill-rule="evenodd" clip-rule="evenodd" d="M81.1627 218.358C78.3822 214.655 77.5902 209.904 78.1866 205.616C78.3055 204.64 78.4435 203.663 78.6008 202.689C79.6938 195.865 81.6613 189.129 83.9376 183.229C87.723 173.423 94.7684 157.377 106.313 154.561C114.597 152.54 119.366 156.065 117.654 163.804C114.428 178.383 105.663 193.827 99.0601 207.273C97.5816 210.285 96.0743 213.332 93.8479 215.863C93.403 216.369 92.9313 216.852 92.4289 217.297C90.0721 219.587 86.1563 221.08 82.9251 219.028C82.3747 218.82 81.7898 218.594 81.1627 218.358Z" fill="#F43285"/>
<path fill-rule="evenodd" clip-rule="evenodd" d="M306.589 234.536C305.909 227.149 299.961 220.534 292.423 220.045C289.423 219.848 286.272 220.302 283.328 221.32C280.381 222.341 277.643 223.926 275.521 225.984C271.594 229.644 270.199 235.274 271.439 240.656C273.054 247.438 278.627 252.653 285.218 254.282C288.289 255.124 291.565 255.266 294.752 254.491C301.345 252.678 306.81 246.667 306.944 239.675C307.077 238.1 306.979 236.397 306.589 234.536Z" fill="#EB0065"/>
<path fill-rule="evenodd" clip-rule="evenodd" d="M119.411 140.832C116.662 135.276 118.148 128.915 121.99 124.192C127.033 117.989 137.065 112.602 143.714 118.633C151.557 125.613 143.806 136.956 136.652 141.522C135.38 142.391 133.988 143.17 132.542 143.771C129.648 144.971 126.551 145.451 123.812 144.484C122.441 144.001 121.162 143.153 120.043 141.857C119.845 141.515 119.636 141.171 119.411 140.832Z" fill="#F43285"/>
<path fill-rule="evenodd" clip-rule="evenodd" d="M233.417 251.936C232.797 247.879 231.793 241.304 236.951 240.14C239.804 239.495 242.751 240.248 244.179 242.913C245.426 245.236 245.651 247.992 246.056 250.546C246.45 253.026 250.37 252.674 249.972 250.177C249.12 244.804 248.201 238.287 242.115 236.469C239.161 235.586 235.45 235.926 232.872 237.694C230.682 239.197 229.533 241.727 229.172 244.287C228.796 246.956 229.096 249.66 229.499 252.305C229.879 254.79 233.798 254.436 233.417 251.936Z" fill="#81063B"/>
<path fill-rule="evenodd" clip-rule="evenodd" d="M170.075 247.566C169.357 240.18 173.847 232.574 180.998 230.694C183.844 229.943 186.956 229.806 189.978 230.261C192.996 230.715 195.923 231.763 198.343 233.392C202.796 236.261 205.183 241.533 204.989 247.051C204.694 254.017 200.306 260.175 194.276 262.999C191.482 264.4 188.36 265.147 185.152 264.976C178.482 264.419 172.112 259.527 170.688 252.68C170.267 251.157 170.043 249.467 170.075 247.566Z" fill="#EB0065"/>
<path fill-rule="evenodd" clip-rule="evenodd" d="M178.054 243C177.95 241.886 177.999 240.796 178.18 239.745C178.363 238.695 178.681 237.687 179.115 236.743C180.376 234.066 182.436 231.545 185.279 231.273C192.053 230.041 201.218 232.94 201.946 240.713C202.051 241.825 202.001 242.917 201.818 243.966C200.908 249.216 196.629 253.419 191.131 253.945C184.533 254.577 178.679 249.676 178.054 243Z" fill="#740333"/>
<path fill-rule="evenodd" clip-rule="evenodd" d="M182.001 241.127C181.992 240.715 182.036 240.303 182.135 239.915C182.725 237.638 185.009 236.518 187.181 237.196C189.047 237.777 190.332 239.791 189.924 241.761C189.447 244.061 186.723 245.572 184.548 244.794C183.005 244.242 182.042 242.748 182.001 241.127Z" fill="white"/>
<path fill-rule="evenodd" clip-rule="evenodd" d="M297.946 231.972C297.841 230.881 297.591 229.838 297.218 228.862C296.845 227.883 296.345 226.972 295.743 226.143C294.008 223.8 291.516 221.755 288.67 222.024C281.788 222.099 273.316 226.596 274.044 234.214C274.149 235.306 274.398 236.349 274.772 237.326C276.641 242.212 281.626 245.462 287.125 244.946C293.726 244.327 298.571 238.518 297.946 231.972Z" fill="#740333"/>
<path fill-rule="evenodd" clip-rule="evenodd" d="M286.945 230.394C286.879 229.985 286.758 229.589 286.587 229.226C285.589 227.096 283.137 226.428 281.127 227.511C279.402 228.442 278.51 230.67 279.277 232.531C280.171 234.706 283.128 235.672 285.121 234.491C286.535 233.651 287.205 231.998 286.945 230.394Z" fill="white"/>
<path fill-rule="evenodd" clip-rule="evenodd" d="M181.998 395.684C170.469 389.47 157.401 388.015 145.698 381.039C143.996 380.122 145.804 376.446 146.922 376.88C204.972 398.33 268.305 390.176 319.978 359.016C325.735 355.869 331.348 352.473 336.79 348.836C360.706 333.458 380.536 312.447 391.192 285.567C397.925 268.491 403.057 251.567 410.109 235C422.563 261.307 408.881 290.36 395.305 314.822C385.877 331.883 373.615 344.631 359.674 356.531C354.468 360.973 349.047 365.161 343.443 369.065C338.54 372.481 333.493 375.68 328.325 378.642C323.155 381.602 317.865 384.326 312.473 386.798C276.175 405.061 234.749 408.446 195.699 398.549C191.147 397.685 186.567 396.726 181.998 395.684Z" fill="#F43285"/>
<path fill-rule="evenodd" clip-rule="evenodd" d="M239.045 387.368C239.067 387.911 239.218 388.483 239.505 389.104C241.132 392.608 242.93 396.061 244.164 399.73C247.348 409.19 244.525 416.188 238.362 423.558C237.395 424.885 236.469 426.232 235.665 427.612C233.255 431.757 231.953 436.215 234.053 441.43C237.552 450.12 245.959 454.646 254.691 454.979C256.438 455.048 258.197 454.947 259.933 454.677C268.925 453.598 277.158 446.901 279.632 437.903C281.866 429.848 273.375 425.033 268.914 419.557C263.598 413.155 260.691 404.667 261.171 396.262C261.199 394.948 261.31 393.619 261.507 392.271C261.96 389.156 263.871 386.302 263.864 383.093C263.852 378.806 259.055 377.331 255.462 377.041C249.748 376.576 243.995 380.164 240.33 384.358C239.452 385.36 239.005 386.31 239.045 387.368Z" fill="#383075"/>
<path fill-rule="evenodd" clip-rule="evenodd" d="M254.46 454.98C251.009 454.85 247.614 454.073 244.542 452.66C248.01 453.364 251.529 453.568 255.132 452.786C264.963 451.1 276.054 442.909 273.269 433.054C271.472 426.768 265.368 422.084 260.11 417.215C257.871 415.033 255.442 411.998 255.726 408.154C256.179 398.932 260.375 384.447 247.124 384.652C244.587 384.599 241.428 384.683 239 385.78C239.221 385.306 239.543 384.836 239.966 384.356C243.666 380.164 249.472 376.576 255.239 377.041C258.863 377.331 265.706 378.806 265.717 383.093C265.725 386.303 262.794 389.156 262.338 392.271C262.139 393.62 262.028 394.949 261.998 396.262C261.514 404.668 263.447 413.155 268.813 419.556C273.315 425.033 281.885 429.849 279.628 437.904C277.133 446.902 268.825 453.599 259.75 454.678C257.998 454.947 256.221 455.047 254.46 454.98Z" fill="#BE0152"/>
<path fill-rule="evenodd" clip-rule="evenodd" d="M256.08 408.292C255.798 412.1 258.218 415.106 260.45 417.268C265.691 422.091 271.774 426.73 273.566 432.957C276.339 442.719 265.286 450.833 255.488 452.504C251.897 453.279 248.389 453.076 244.933 452.379C240.174 450.202 236.201 446.493 234.06 441.253C231.947 436.087 233.255 431.673 235.681 427.568C236.488 426.2 237.422 424.866 238.392 423.552C244.593 416.251 246.432 409.319 243.228 399.947C241.987 396.314 240.18 391.893 238.544 388.422C238.253 387.806 239.101 387.24 239.081 386.702C239.06 386.156 239.174 385.639 239.409 385.13C241.829 384.042 244.978 383.959 247.506 384.012C260.714 383.811 256.532 399.157 256.08 408.292Z" fill="#EB0065"/>
<mask id="mask2" mask-type="alpha" maskUnits="userSpaceOnUse" x="397" y="200" width="78" height="48">
<path fill-rule="evenodd" clip-rule="evenodd" d="M397.452 200.118H474.621V247.523H397.452V200.118Z" fill="white"/>
</mask>
<g mask="url(#mask2)">
<path fill-rule="evenodd" clip-rule="evenodd" d="M404.497 217.022C405.03 216.926 405.621 216.951 406.286 217.102C410.048 217.959 413.8 218.995 417.636 219.425C427.531 220.539 433.72 216.215 439.543 208.493C440.625 207.247 441.731 206.033 442.899 204.937C446.404 201.642 450.453 199.385 455.983 200.339C465.198 201.93 471.432 209.299 473.663 217.901C474.107 219.621 474.392 221.392 474.51 223.175C475.421 232.341 470.705 241.974 462.493 246.382C455.149 250.349 448.611 242.957 442.314 239.714C434.93 235.82 426.042 234.774 417.971 237.072C416.701 237.385 415.432 237.785 414.164 238.272C411.232 239.397 408.876 241.916 405.752 242.604C401.581 243.523 399.101 239.075 398.034 235.571C396.339 229.995 398.571 223.502 401.85 218.949C402.632 217.861 403.461 217.21 404.497 217.022Z" fill="#383075"/>
</g>
<mask id="mask3" mask-type="alpha" maskUnits="userSpaceOnUse" x="397" y="208" width="78" height="40">
<path fill-rule="evenodd" clip-rule="evenodd" d="M397.453 208.954H474.621V247.527H397.453V208.954Z" fill="white"/>
</mask>
<g mask="url(#mask3)">
<path fill-rule="evenodd" clip-rule="evenodd" d="M474.51 223.371C474.392 221.602 474.106 219.848 473.662 218.141C472.79 214.8 471.299 211.65 469.261 208.954C470.695 212.189 471.655 215.581 471.674 219.271C472.156 229.232 466.586 241.825 456.402 241.227C449.901 240.825 444.026 235.871 438.158 231.785C435.55 230.065 432.074 228.349 428.398 229.451C419.527 231.878 406.348 239.093 403.683 226.109C403.083 223.642 402.483 220.539 403.026 217.933C402.611 218.25 402.226 218.663 401.851 219.181C398.571 223.695 396.339 230.137 398.036 235.671C399.101 239.147 401.581 243.558 405.752 242.648C408.876 241.966 411.232 239.467 414.163 238.349C415.432 237.865 416.701 237.471 417.971 237.158C426.042 234.878 434.929 235.916 442.314 239.779C448.611 242.998 455.148 250.331 462.493 246.394C470.704 242.021 475.422 232.465 474.51 223.371Z" fill="#BE0152"/>
</g>
<path fill-rule="evenodd" clip-rule="evenodd" d="M403.872 226.768C406.54 239.833 419.74 232.573 428.627 230.131C432.307 229.023 435.789 230.75 438.403 232.479C444.281 236.592 450.164 241.577 456.676 241.979C466.875 242.581 472.454 229.913 471.971 219.887C471.954 216.177 470.992 212.763 469.556 209.507C466.381 205.291 461.871 202.186 456.256 201.22C450.718 200.267 446.662 202.521 443.151 205.808C441.982 206.904 440.873 208.116 439.79 209.36C433.957 217.068 427.759 221.382 417.847 220.272C414.005 219.843 410.247 218.808 406.479 217.953C405.813 217.802 405.221 217.777 404.687 217.873C404.147 217.971 403.664 218.197 403.212 218.542C402.669 221.164 403.271 224.286 403.872 226.768Z" fill="#EB0065"/>
<path fill-rule="evenodd" clip-rule="evenodd" d="M444 212.891C444.993 209.761 447.975 207.754 450.795 206.576C454.777 205.229 461.596 206.024 460.958 211.343C460.483 216.165 454.836 216.857 450.851 217.874C448.195 218.551 445.361 216.407 444.291 213.649C444.195 213.407 444.099 213.155 444 212.891Z" fill="#BE0152"/>
<path fill-rule="evenodd" clip-rule="evenodd" d="M268.212 78.1838C265.182 77.7405 262.057 78.071 259.418 79.4826C255.181 81.7517 252.02 86.5057 255.469 90.9369C261.057 98.1136 272.355 99.2394 278.56 92.5877C282.03 88.8681 278.589 82.6772 274.984 80.5579C272.98 79.3796 270.624 78.5377 268.212 78.1838Z" fill="#EB0065"/>
<path fill-rule="evenodd" clip-rule="evenodd" d="M310.718 91.3887C305.365 89.9672 297.977 92.485 298 98.2732C297.929 105.912 307.992 108.415 314.323 106.256C316.163 105.563 317.928 104.085 318.56 102.185C319.63 99.1911 318.731 95.5881 316.063 93.8155C314.589 92.7006 312.731 91.8421 310.718 91.3887Z" fill="#EB0065"/>
<path fill-rule="evenodd" clip-rule="evenodd" d="M190.724 145.002C185.218 144.883 178.742 149.092 180.212 154.74C182.06 162.218 192.364 162.278 197.916 158.672C199.512 157.556 200.839 155.696 200.971 153.69C201.252 150.512 199.484 147.207 196.475 146.107C194.775 145.366 192.775 144.969 190.724 145.002Z" fill="#EB0065"/>
<path fill-rule="evenodd" clip-rule="evenodd" d="M284.54 105.174C280.39 104.262 275.746 107.035 275.075 111.278C274.427 115.78 278.085 119.631 282.766 119.991C286.877 120.142 291.083 118.454 292.617 114.656C293.691 111.684 292.493 107.871 289.203 106.895C287.899 106.009 286.279 105.395 284.54 105.174Z" fill="#EB0065"/>
<path fill-rule="evenodd" clip-rule="evenodd" d="M170.687 176.068C166.415 176.151 162.603 179.933 163.033 184.213C163.554 188.74 168.101 191.628 172.746 190.883C176.788 190.07 180.45 187.446 180.975 183.396C181.259 180.256 179.118 176.832 175.665 176.653C174.171 176.096 172.439 175.876 170.687 176.068Z" fill="#EB0065"/>
<path fill-rule="evenodd" clip-rule="evenodd" d="M180.723 331.002C175.216 330.883 168.741 335.092 170.212 340.74C172.058 348.218 182.363 348.278 187.916 344.672C189.514 343.556 190.839 341.696 190.971 339.69C191.252 336.512 189.483 333.207 186.474 332.107C184.775 331.366 182.774 330.969 180.723 331.002Z" fill="#EB0065"/>
<path fill-rule="evenodd" clip-rule="evenodd" d="M217.687 336.068C213.415 336.153 209.603 339.932 210.033 344.213C210.554 348.739 215.101 351.627 219.746 350.884C223.79 350.068 227.45 347.447 227.975 343.396C228.259 340.258 226.118 336.832 222.665 336.653C221.171 336.096 219.439 335.876 217.687 336.068Z" fill="#EB0065"/>
<path fill-rule="evenodd" clip-rule="evenodd" d="M358.54 265.174C354.39 264.262 349.746 267.035 349.075 271.279C348.427 275.781 352.085 279.629 356.766 279.991C360.877 280.14 365.083 278.452 366.617 274.655C367.691 271.683 366.493 267.871 363.203 266.897C361.899 266.009 360.279 265.395 358.54 265.174Z" fill="#EB0065"/>
<path fill-rule="evenodd" clip-rule="evenodd" d="M342.359 287.116C339.594 286.508 336.498 288.358 336.05 291.186C335.617 294.187 338.056 296.753 341.175 296.994C343.919 297.094 346.722 295.968 347.745 293.436C348.461 291.455 347.662 288.914 345.467 288.263C344.6 287.673 343.52 287.264 342.359 287.116Z" fill="#EB0065"/>
<path fill-rule="evenodd" clip-rule="evenodd" d="M115.956 320.298C116.455 314.812 112.693 308.048 106.943 309.112C99.3429 310.422 98.5722 320.701 101.798 326.5C102.803 328.174 104.573 329.629 106.568 329.904C109.724 330.41 113.15 328.884 114.457 325.958C115.313 324.315 115.847 322.347 115.956 320.298Z" fill="#EB0065"/>
<path fill-rule="evenodd" clip-rule="evenodd" d="M96.9899 297.213C97.1919 292.955 93.6687 288.887 89.3597 289.002C84.7987 289.19 81.6073 293.502 82.0391 298.181C82.584 302.263 84.9599 306.098 88.9742 306.917C92.0934 307.429 95.661 305.55 96.0725 302.126C96.7286 300.679 97.064 298.971 96.9899 297.213Z" fill="#EB0065"/>
<path fill-rule="evenodd" clip-rule="evenodd" d="M356.796 341.346C357.139 341.764 357.602 342.124 358.204 342.441C361.599 344.225 365.105 345.866 368.286 348.018C376.492 353.57 378.413 360.815 377.882 370.383C377.905 372.018 377.968 373.645 378.15 375.225C378.697 379.962 380.319 384.275 385.116 387.127C393.114 391.878 402.55 390.359 409.742 385.329C411.18 384.322 412.529 383.177 413.757 381.912C420.312 375.606 422.902 365.315 419.503 356.701C416.477 348.974 406.801 350.315 399.954 348.69C391.871 346.85 384.468 341.9 379.828 334.963C379.069 333.908 378.362 332.789 377.712 331.604C376.211 328.865 376.037 325.448 374.114 322.916C371.541 319.532 366.817 321.275 363.769 323.223C358.917 326.322 356.452 332.649 356.025 338.187C355.921 339.512 356.131 340.535 356.796 341.346Z" fill="#383075"/>
<path fill-rule="evenodd" clip-rule="evenodd" d="M413.758 382.397C412.53 383.672 411.181 384.827 409.743 385.842C406.928 387.826 403.769 389.266 400.485 390C403.659 388.459 406.571 386.494 408.966 383.686C415.755 376.387 419.656 363.141 411.558 356.972C406.376 353.047 398.731 353.011 391.65 352.315C388.566 351.932 384.827 350.982 382.755 347.748C377.601 340.122 372.271 326.035 361.88 334.223C359.836 335.718 357.379 337.698 356.109 340.042C356.001 339.533 355.975 338.964 356.024 338.323C356.452 332.741 358.917 326.364 363.768 323.242C366.818 321.279 371.542 319.52 374.113 322.93C376.038 325.484 376.212 328.927 377.713 331.688C378.361 332.882 379.067 334.01 379.829 335.075C384.469 342.068 391.87 347.056 399.955 348.91C406.801 350.548 416.479 349.197 419.503 356.985C422.902 365.67 420.314 376.041 413.758 382.397Z" fill="#BE0152"/>
<path fill-rule="evenodd" clip-rule="evenodd" d="M361.772 334.444C372.165 326.368 377.495 340.263 382.65 347.785C384.723 350.975 388.462 351.912 391.547 352.289C398.629 352.976 406.273 353.012 411.458 356.881C419.557 362.966 415.655 376.033 408.866 383.232C406.47 386 403.558 387.941 400.383 389.459C395.28 390.584 389.881 390.02 385.013 387.147C380.213 384.311 378.591 380.023 378.043 375.313C377.861 373.742 377.798 372.124 377.776 370.499C378.308 360.986 376.385 353.783 368.179 348.264C364.996 346.124 361.492 344.492 358.096 342.718C357.491 342.403 357.029 342.045 356.686 341.63C356.341 341.21 356.121 340.731 356 340.184C357.27 337.872 359.728 335.919 361.772 334.444Z" fill="#EB0065"/>
<path fill-rule="evenodd" clip-rule="evenodd" d="M383.618 370.322C382.293 373.453 383.3 377.034 384.739 379.852C386.984 383.585 392.92 387.527 396.002 382.909C398.877 378.794 394.873 374.462 392.404 370.989C390.757 368.676 387.066 368.464 384.36 369.92C384.12 370.046 383.874 370.18 383.618 370.322Z" fill="#BE0152"/>
<path fill-rule="evenodd" clip-rule="evenodd" d="M242.712 426C239.898 427.628 238.593 430.937 238.057 433.91C237.604 438.043 239.833 444.456 244.842 442.704C249.405 441.215 248.866 435.614 248.998 431.549C249.085 428.841 246.401 426.56 243.507 426.119C243.253 426.078 242.987 426.039 242.712 426Z" fill="#BE0152"/>
</svg>
