<svg width="52" height="52" viewBox="0 0 52 52" fill="none" xmlns="http://www.w3.org/2000/svg">
<path fill-rule="evenodd" clip-rule="evenodd" d="M50.4571 25.4099C50.1007 24.5966 49.4533 24.3677 48.7875 24.6565C48.3927 24.8278 48.0494 24.9645 48.0494 24.9645C47.4342 25.221 46.7638 25.5374 46.0856 25.5374H45.8898C45.2086 25.5374 44.651 25.0144 44.5865 24.337C44.4122 22.4892 43.9644 20.6767 43.2602 18.9618C43.0098 18.352 43.2387 17.6516 43.8101 17.3221L44.055 17.18C44.6426 16.8413 45.3821 16.7799 46.0426 16.6946C46.0426 16.6946 46.4082 16.6409 46.8352 16.5917C47.5571 16.5095 48.0026 15.9865 47.905 15.1049C47.8659 14.7516 47.7422 14.3945 47.5564 14.0735C47.3705 13.7517 47.1232 13.466 46.8375 13.2555C46.1217 12.7302 45.4474 12.8546 45.0143 13.4383C44.7585 13.7839 44.5289 14.0742 44.5289 14.0742C44.1249 14.6034 43.7025 15.2132 43.1142 15.5526L42.9499 15.6479C42.3593 15.9881 41.6136 15.813 41.2196 15.2577C40.1651 13.7716 38.8795 12.4261 37.3811 11.2749C36.8566 10.8724 36.7045 10.1497 37.034 9.57835L37.1784 9.33028C37.5171 8.742 38.1269 8.3196 38.6568 7.91563C38.6568 7.91563 38.9463 7.686 39.2919 7.43025C39.8756 6.99787 40.0008 6.32203 39.4747 5.60779C39.2643 5.32132 38.9786 5.07403 38.6568 4.88817C38.3358 4.70308 37.9786 4.57867 37.6254 4.54027C36.7437 4.44196 36.2207 4.88817 36.1377 5.60932C36.0893 6.03633 36.0364 6.4019 36.0364 6.4019C35.9503 7.06315 35.8889 7.80196 35.5502 8.39025L35.4504 8.56228C35.1101 9.15288 34.3775 9.37406 33.7585 9.0899C32.0382 8.29809 30.2487 7.78737 28.4462 7.54622C27.7903 7.45867 27.2973 6.91032 27.2973 6.24984V5.97028C27.2973 5.29137 27.6137 4.62091 27.8702 4.00574C27.8702 4.00574 28.0069 3.66244 28.1782 3.26769C28.4677 2.60184 28.2373 1.95364 27.4248 1.59806C27.0999 1.45521 26.729 1.38379 26.3573 1.38379C25.9863 1.38379 25.6146 1.45521 25.2897 1.59806C24.4772 1.95364 24.2476 2.60184 24.5363 3.26769C24.7084 3.66244 24.8443 4.00574 24.8443 4.00574C25.1008 4.62091 25.4172 5.29137 25.4172 5.97028V6.16536C25.4172 6.84657 24.895 7.40414 24.2168 7.46788C22.3698 7.64299 20.5566 8.08996 18.8424 8.79499C18.2326 9.04536 17.5322 8.81649 17.2019 8.2451L17.0606 8.00011C16.7212 7.41182 16.6597 6.67377 16.5745 6.01252C16.5745 6.01252 16.5207 5.64696 16.4723 5.21918C16.3902 4.49803 15.8671 4.05182 14.9847 4.15012C14.6322 4.18929 14.2751 4.31294 13.9533 4.4988C13.6323 4.68388 13.3466 4.93118 13.1354 5.21764C12.6101 5.93265 12.7352 6.60849 13.3189 7.04011C13.6645 7.29662 13.9541 7.52548 13.9541 7.52548C14.4832 7.93022 15.093 8.35262 15.4325 8.94014L15.5285 9.10526C15.8687 9.69585 15.6928 10.4408 15.1375 10.8356C13.6522 11.89 12.3059 13.1757 11.1547 14.674C10.753 15.1978 10.0296 15.3506 9.45819 15.0204L9.21012 14.8768C8.62183 14.5373 8.2002 13.9283 7.79547 13.3984C7.79547 13.3984 7.56583 13.1088 7.31009 12.7632C6.87847 12.1796 6.20263 12.0544 5.48763 12.5805C5.20116 12.7909 4.95387 13.0766 4.76878 13.3976C4.58369 13.7194 4.45927 14.0765 4.42011 14.4298C4.32257 15.3115 4.76801 15.8345 5.48916 15.9167C5.91694 15.9658 6.28251 16.0188 6.28251 16.0188C6.94375 16.1048 7.68257 16.1655 8.27009 16.5049L8.44289 16.6048C9.03271 16.945 9.25467 17.6777 8.96897 18.2967C8.17793 20.017 7.66721 21.8064 7.42683 23.6089C7.33851 24.264 6.79092 24.7571 6.12967 24.7571H5.85012C5.17121 24.7571 4.50075 24.4407 3.88558 24.1842C3.88558 24.1842 3.54228 24.0482 3.14753 23.877C2.48167 23.5874 1.83425 23.8171 1.4779 24.6296C1.33505 24.9552 1.26363 25.3262 1.26363 25.6979C1.26363 26.0688 1.33505 26.4398 1.4779 26.7654C1.83425 27.578 2.48167 27.8076 3.14753 27.5181C3.54228 27.3468 3.88558 27.2109 3.88558 27.2109C4.50075 26.9543 5.17121 26.6379 5.85012 26.6379H6.04596C6.72641 26.6379 7.28398 27.1602 7.34772 27.8375C7.52359 29.6854 7.97057 31.4978 8.67483 33.2128C8.92596 33.8226 8.69633 34.523 8.12494 34.8532L7.88071 34.9945C7.29243 35.334 6.55361 35.3947 5.89313 35.4807C5.89313 35.4807 5.52679 35.5344 5.09902 35.5828C4.37787 35.6658 3.93243 36.188 4.02996 37.0704C4.0699 37.423 4.19355 37.7801 4.37863 38.1011C4.56449 38.4229 4.81102 38.7086 5.09748 38.919C5.81249 39.4451 6.48833 39.3199 6.92071 38.7362C7.17646 38.3906 7.40532 38.1011 7.40532 38.1011C7.81006 37.5712 8.23246 36.9622 8.81998 36.6227L8.98587 36.5275C9.57646 36.1865 10.3207 36.3616 10.7154 36.9176C11.7699 38.4029 13.0555 39.7492 14.5546 40.8997C15.0784 41.3021 15.2305 42.0248 14.9002 42.5962L14.7574 42.845C14.4172 43.4326 13.8081 43.855 13.279 44.2589C13.279 44.2589 12.9887 44.4886 12.6431 44.7443C12.0594 45.1767 11.935 45.8525 12.4603 46.5675C12.6707 46.8532 12.9564 47.1005 13.2782 47.2864C13.6 47.4722 13.9571 47.5959 14.3096 47.6343C15.1921 47.7326 15.7143 47.2864 15.7965 46.5652C15.8456 46.1382 15.8994 45.7726 15.8994 45.7726C15.9846 45.1114 16.0453 44.3726 16.3855 43.7851L16.4854 43.6123C16.8256 43.0224 17.5575 42.8005 18.1765 43.0854C19.8968 43.8772 21.6863 44.3872 23.4895 44.6283C24.1439 44.7159 24.6377 45.2642 24.6377 45.9255V46.205C24.6377 46.8839 24.3213 47.5544 24.0648 48.1696C24.0648 48.1696 23.9281 48.5129 23.7568 48.9076C23.4673 49.5735 23.6969 50.2209 24.5102 50.5773C24.8358 50.7201 25.2068 50.7908 25.577 50.7908C25.9487 50.7908 26.3196 50.7201 26.6453 50.5773C27.4586 50.2209 27.6882 49.5735 27.3987 48.9076C27.2266 48.5129 27.0907 48.1696 27.0907 48.1696C26.8342 47.5544 26.5178 46.8839 26.5178 46.205V46.0092C26.5178 45.3287 27.0408 44.7704 27.7182 44.7067C29.5652 44.5316 31.3777 44.0846 33.0926 43.3796C33.7032 43.1292 34.4036 43.3588 34.7331 43.9295L34.8744 44.1752C35.2138 44.7627 35.2745 45.5015 35.3605 46.162C35.3605 46.162 35.4143 46.5284 35.4634 46.9554C35.5456 47.6765 36.0678 48.1227 36.9503 48.0244C37.3028 47.986 37.6599 47.8616 37.9817 47.6765C38.3027 47.4907 38.5884 47.2434 38.7989 46.9569C39.3249 46.2419 39.2005 45.5668 38.6168 45.1344C38.2712 44.8787 37.9809 44.6491 37.9809 44.6491C37.451 44.2451 36.842 43.8227 36.5025 43.2344L36.4073 43.0693C36.0663 42.4795 36.2414 41.7337 36.7974 41.3398C38.2828 40.2853 39.6291 38.9997 40.7795 37.5005C41.182 36.9767 41.9046 36.8247 42.476 37.1542L42.7249 37.2978C43.3124 37.6372 43.7348 38.2463 44.1395 38.7762C44.1395 38.7762 44.3684 39.0665 44.6249 39.4113C45.0573 39.9958 45.7324 40.1202 46.4474 39.5941C46.7331 39.3837 46.9811 39.098 47.1662 38.7769C47.3521 38.4551 47.4757 38.098 47.5149 37.7455C47.6132 36.8631 47.167 36.3408 46.4451 36.2579C46.0188 36.2095 45.6525 36.1558 45.6525 36.1558C44.992 36.0705 44.2532 36.0091 43.6649 35.6696L43.4929 35.5698C42.9023 35.2295 42.6803 34.4969 42.9653 33.8786C43.7571 32.1583 44.267 30.3681 44.5082 28.5656C44.5957 27.9105 45.1448 27.4175 45.8053 27.4175H46.0856C46.7638 27.4175 47.4342 27.7339 48.0494 27.9904C48.0494 27.9904 48.3927 28.1271 48.7875 28.2983C49.4533 28.5871 50.1007 28.3575 50.4571 27.5449C50.5999 27.2193 50.6706 26.8484 50.6706 26.4774C50.6706 26.1065 50.5999 25.7348 50.4571 25.4099Z" fill="#FFEDEB"/>
<path fill-rule="evenodd" clip-rule="evenodd" d="M23.8778 18.2512C23.8778 20.5591 22.0062 22.4307 19.6984 22.4307C17.3905 22.4307 15.5189 20.5591 15.5189 18.2512C15.5189 15.9426 17.3905 14.0718 19.6984 14.0718C22.0062 14.0718 23.8778 15.9426 23.8778 18.2512Z" stroke="#FF3E29" stroke-opacity="0.54"/>
<path fill-rule="evenodd" clip-rule="evenodd" d="M35.6334 35.6287C35.6334 37.1693 34.3846 38.4181 32.844 38.4181C31.3034 38.4181 30.0539 37.1693 30.0539 35.6287C30.0539 34.0881 31.3034 32.8394 32.844 32.8394C34.3846 32.8394 35.6334 34.0881 35.6334 35.6287Z" stroke="#FF3E29" stroke-opacity="0.54"/>
<path fill-rule="evenodd" clip-rule="evenodd" d="M18.3084 29.4521C18.3084 30.9927 17.0596 32.2415 15.519 32.2415C13.9784 32.2415 12.7296 30.9927 12.7296 29.4521C12.7296 27.9115 13.9784 26.6627 15.519 26.6627C17.0596 26.6627 18.3084 27.9115 18.3084 29.4521Z" stroke="#FF3E29" stroke-opacity="0.54"/>
<path fill-rule="evenodd" clip-rule="evenodd" d="M29.4571 29.4521C29.4571 30.9927 28.2076 32.2415 26.667 32.2415C25.1264 32.2415 23.8776 30.9927 23.8776 29.4521C23.8776 27.9115 25.1264 26.6627 26.667 26.6627C28.2076 26.6627 29.4571 27.9115 29.4571 29.4521Z" stroke="#FF3E29" stroke-opacity="0.54"/>
<path fill-rule="evenodd" clip-rule="evenodd" d="M39.9264 27.7117C39.9264 28.8968 38.9656 29.8583 37.7798 29.8583C36.594 29.8583 35.6332 28.8968 35.6332 27.7117C35.6332 26.5267 36.594 25.5652 37.7798 25.5652C38.9656 25.5652 39.9264 26.5267 39.9264 27.7117Z" stroke="#FF3E29" stroke-opacity="0.54"/>
<path fill-rule="evenodd" clip-rule="evenodd" d="M26.9663 38.6438C26.9663 39.5124 26.2621 40.2166 25.3935 40.2166C24.5249 40.2166 23.8206 39.5124 23.8206 38.6438C23.8206 37.7751 24.5249 37.0717 25.3935 37.0717C26.2621 37.0717 26.9663 37.7751 26.9663 38.6438Z" stroke="#FF3E29" stroke-opacity="0.54"/>
<path fill-rule="evenodd" clip-rule="evenodd" d="M33.7284 18.9C33.7284 19.7686 33.0241 20.4728 32.1555 20.4728C31.2869 20.4728 30.5834 19.7686 30.5834 18.9C30.5834 18.0314 31.2869 17.3279 32.1555 17.3279C33.0241 17.3279 33.7284 18.0314 33.7284 18.9Z" stroke="#FF3E29" stroke-opacity="0.54"/>
<path fill-rule="evenodd" clip-rule="evenodd" d="M50.4571 25.4099C50.1007 24.5966 49.4533 24.3677 48.7875 24.6565C48.3927 24.8278 48.0494 24.9645 48.0494 24.9645C47.4342 25.221 46.7638 25.5374 46.0856 25.5374H45.8898C45.2086 25.5374 44.651 25.0144 44.5865 24.337C44.4122 22.4892 43.9644 20.6767 43.2602 18.9618C43.0098 18.352 43.2387 17.6516 43.8101 17.3221L44.055 17.18C44.6426 16.8413 45.3821 16.7799 46.0426 16.6946C46.0426 16.6946 46.4082 16.6409 46.8352 16.5917C47.5571 16.5095 48.0026 15.9865 47.905 15.1049C47.8659 14.7516 47.7422 14.3945 47.5564 14.0735C47.3705 13.7517 47.1232 13.466 46.8375 13.2555C46.1217 12.7302 45.4474 12.8546 45.0143 13.4383C44.7585 13.7839 44.5289 14.0742 44.5289 14.0742C44.1249 14.6034 43.7025 15.2132 43.1142 15.5526L42.9499 15.6479C42.3593 15.9881 41.6136 15.813 41.2196 15.2577C40.1651 13.7716 38.8795 12.4261 37.3811 11.2749C36.8566 10.8724 36.7045 10.1497 37.034 9.57835L37.1784 9.33028C37.5171 8.742 38.1269 8.3196 38.6568 7.91563C38.6568 7.91563 38.9463 7.686 39.2919 7.43025C39.8756 6.99787 40.0008 6.32203 39.4747 5.60779C39.2643 5.32132 38.9786 5.07403 38.6568 4.88817C38.3358 4.70308 37.9786 4.57867 37.6254 4.54027C36.7437 4.44196 36.2207 4.88817 36.1377 5.60932C36.0893 6.03633 36.0364 6.4019 36.0364 6.4019C35.9503 7.06315 35.8889 7.80196 35.5502 8.39025L35.4504 8.56228C35.1102 9.15288 34.3775 9.37406 33.7585 9.0899C32.0382 8.29809 30.2487 7.78737 28.4462 7.54622C27.7903 7.45867 27.2973 6.91032 27.2973 6.24984V5.97028C27.2973 5.29137 27.6137 4.62091 27.8702 4.00574C27.8702 4.00574 28.0069 3.66244 28.1782 3.26769C28.4677 2.60184 28.2373 1.95365 27.4248 1.59806C27.0999 1.45521 26.729 1.38379 26.3573 1.38379C25.9863 1.38379 25.6146 1.45521 25.2897 1.59806C24.4772 1.95365 24.2476 2.60184 24.5363 3.26769C24.7084 3.66244 24.8443 4.00574 24.8443 4.00574C25.1008 4.62091 25.4172 5.29137 25.4172 5.97028V6.16536C25.4172 6.84657 24.895 7.40414 24.2168 7.46788C22.3698 7.64299 20.5566 8.08996 18.8424 8.79499C18.2326 9.04536 17.5322 8.81649 17.2019 8.2451L17.0606 8.00011C16.7212 7.41182 16.6597 6.67377 16.5745 6.01252C16.5745 6.01252 16.5207 5.64696 16.4723 5.21918C16.3902 4.49803 15.8671 4.05182 14.9847 4.15012C14.6322 4.18929 14.2751 4.31294 13.9533 4.4988C13.6323 4.68388 13.3466 4.93118 13.1354 5.21764C12.6101 5.93265 12.7352 6.60849 13.3189 7.04011C13.6645 7.29662 13.9541 7.52548 13.9541 7.52548C14.4832 7.93022 15.093 8.35262 15.4325 8.94014L15.5285 9.10526C15.8687 9.69585 15.6928 10.4408 15.1375 10.8356C13.6522 11.89 12.3059 13.1757 11.1547 14.674C10.753 15.1978 10.0296 15.3506 9.45819 15.0204L9.21012 14.8768C8.62183 14.5373 8.2002 13.9283 7.79547 13.3984C7.79547 13.3984 7.56583 13.1088 7.31009 12.7632C6.87847 12.1796 6.20263 12.0544 5.48763 12.5805C5.20116 12.7909 4.95387 13.0766 4.76878 13.3976C4.58369 13.7194 4.45927 14.0765 4.42011 14.4298C4.32257 15.3115 4.76801 15.8345 5.48916 15.9167C5.91694 15.9658 6.28251 16.0188 6.28251 16.0188C6.94375 16.1048 7.68257 16.1655 8.27009 16.5049L8.44289 16.6048C9.03271 16.945 9.25467 17.6777 8.96897 18.2967C8.17793 20.017 7.66721 21.8064 7.42683 23.6089C7.33851 24.264 6.79092 24.7571 6.12967 24.7571H5.85012C5.17121 24.7571 4.50075 24.4407 3.88558 24.1842C3.88558 24.1842 3.54228 24.0482 3.14753 23.877C2.48167 23.5874 1.83425 23.8171 1.4779 24.6296C1.33505 24.9552 1.26363 25.3262 1.26363 25.6979C1.26363 26.0688 1.33505 26.4398 1.4779 26.7654C1.83425 27.578 2.48167 27.8076 3.14753 27.5181C3.54228 27.3468 3.88558 27.2109 3.88558 27.2109C4.50075 26.9543 5.17121 26.6379 5.85012 26.6379H6.04596C6.72641 26.6379 7.28398 27.1602 7.34772 27.8375C7.52359 29.6854 7.97057 31.4978 8.67483 33.2128C8.92596 33.8226 8.69633 34.523 8.12494 34.8532L7.88071 34.9945C7.29243 35.334 6.55361 35.3947 5.89313 35.4807C5.89313 35.4807 5.52679 35.5344 5.09902 35.5828C4.37787 35.6658 3.93243 36.188 4.02996 37.0704C4.0699 37.423 4.19355 37.7801 4.37863 38.1011C4.56449 38.4229 4.81102 38.7086 5.09748 38.919C5.81249 39.4451 6.48833 39.3199 6.92071 38.7362C7.17646 38.3906 7.40532 38.1011 7.40532 38.1011C7.81006 37.5712 8.23246 36.9622 8.81998 36.6227L8.98587 36.5275C9.57646 36.1865 10.3206 36.3616 10.7154 36.9176C11.7699 38.4029 13.0555 39.7492 14.5546 40.8997C15.0784 41.3021 15.2305 42.0248 14.9002 42.5962L14.7574 42.845C14.4172 43.4326 13.8081 43.855 13.279 44.2589C13.279 44.2589 12.9887 44.4886 12.6431 44.7443C12.0594 45.1767 11.935 45.8525 12.4603 46.5675C12.6707 46.8532 12.9564 47.1005 13.2782 47.2864C13.6 47.4722 13.9571 47.5959 14.3096 47.6343C15.1921 47.7326 15.7143 47.2864 15.7965 46.5652C15.8456 46.1382 15.8994 45.7726 15.8994 45.7726C15.9846 45.1114 16.0453 44.3726 16.3855 43.7851L16.4854 43.6123C16.8256 43.0224 17.5575 42.8005 18.1765 43.0854C19.8968 43.8772 21.6863 44.3872 23.4895 44.6283C24.1439 44.7159 24.6377 45.2642 24.6377 45.9255V46.205C24.6377 46.8839 24.3213 47.5544 24.0648 48.1696C24.0648 48.1696 23.9281 48.5129 23.7568 48.9076C23.4673 49.5735 23.6969 50.2209 24.5102 50.5773C24.8358 50.7201 25.2068 50.7908 25.577 50.7908C25.9487 50.7908 26.3196 50.7201 26.6453 50.5773C27.4586 50.2209 27.6882 49.5735 27.3987 48.9076C27.2266 48.5129 27.0907 48.1696 27.0907 48.1696C26.8342 47.5544 26.5178 46.8839 26.5178 46.205V46.0092C26.5178 45.3287 27.0408 44.7704 27.7182 44.7067C29.5652 44.5316 31.3777 44.0846 33.0926 43.3796C33.7032 43.1292 34.4036 43.3588 34.7331 43.9295L34.8744 44.1752C35.2138 44.7627 35.2745 45.5015 35.3605 46.162C35.3605 46.162 35.4143 46.5284 35.4634 46.9554C35.5456 47.6765 36.0678 48.1227 36.9503 48.0244C37.3028 47.986 37.6599 47.8616 37.9817 47.6765C38.3027 47.4907 38.5884 47.2434 38.7989 46.9569C39.3249 46.2419 39.2005 45.5668 38.6168 45.1344C38.2712 44.8787 37.9809 44.6491 37.9809 44.6491C37.451 44.2451 36.842 43.8227 36.5025 43.2344L36.4073 43.0693C36.0663 42.4795 36.2414 41.7337 36.7974 41.3398C38.2828 40.2853 39.6291 38.9997 40.7795 37.5005C41.182 36.9767 41.9046 36.8247 42.476 37.1542L42.7249 37.2978C43.3124 37.6372 43.7348 38.2462 44.1395 38.7762C44.1395 38.7762 44.3684 39.0665 44.6249 39.4113C45.0573 39.9958 45.7324 40.1202 46.4474 39.5941C46.7331 39.3837 46.9811 39.098 47.1662 38.7769C47.3521 38.4551 47.4757 38.098 47.5149 37.7455C47.6132 36.8631 47.167 36.3408 46.4451 36.2579C46.0188 36.2095 45.6525 36.1558 45.6525 36.1558C44.992 36.0705 44.2532 36.0091 43.6649 35.6696L43.4929 35.5698C42.9023 35.2295 42.6803 34.4969 42.9653 33.8786C43.7571 32.1583 44.267 30.3681 44.5082 28.5656C44.5957 27.9105 45.1448 27.4175 45.8053 27.4175H46.0856C46.7638 27.4175 47.4342 27.7339 48.0494 27.9904C48.0494 27.9904 48.3927 28.1271 48.7875 28.2983C49.4533 28.5871 50.1007 28.3575 50.4571 27.5449C50.5999 27.2193 50.6706 26.8484 50.6706 26.4774C50.6706 26.1065 50.5999 25.7348 50.4571 25.4099Z" stroke="#FF3E29" stroke-opacity="0.54"/>
</svg>
